<svg width="40" height="42" viewBox="0 0 40 42" fill="none" xmlns="http://www.w3.org/2000/svg">
<path d="M3.74724 37.5H8.34099V33.75C8.34099 33.2188 8.52099 32.7738 8.88099 32.415C9.24099 32.0563 9.68599 31.8763 10.216 31.875C10.746 31.8738 11.1916 32.0537 11.5529 32.415C11.9141 32.7763 12.0935 33.2213 12.091 33.75V37.5H17.716V33.75C17.716 33.2188 17.896 32.7738 18.256 32.415C18.616 32.0563 19.061 31.8763 19.591 31.875C20.121 31.8738 20.5666 32.0537 20.9279 32.415C21.2891 32.7763 21.4685 33.2213 21.466 33.75V37.5H27.091V33.75C27.091 33.2188 27.271 32.7738 27.631 32.415C27.991 32.0563 28.436 31.8763 28.966 31.875C29.496 31.8738 29.9416 32.0537 30.3029 32.415C30.6641 32.7763 30.8435 33.2213 30.841 33.75V37.5H35.4347L33.5597 30H5.62224L3.74724 37.5ZM35.4347 41.25H3.74724C2.52849 41.25 1.54412 40.7656 0.794118 39.7969C0.0441177 38.8281 -0.174632 37.75 0.137868 36.5625L2.71599 26.25V22.5C2.71599 21.4688 3.08349 20.5863 3.81849 19.8525C4.55349 19.1188 5.43599 18.7513 6.46599 18.75H13.966V5.625C13.966 4.0625 14.5129 2.73438 15.6066 1.64063C16.7004 0.546875 18.0285 0 19.591 0C21.1535 0 22.4816 0.546875 23.5754 1.64063C24.6691 2.73438 25.216 4.0625 25.216 5.625V18.75H32.716C33.7472 18.75 34.6304 19.1175 35.3654 19.8525C36.1004 20.5875 36.4672 21.47 36.466 22.5V26.25L39.0441 36.5625C39.4504 37.75 39.2704 38.8281 38.5041 39.7969C37.7379 40.7656 36.7147 41.25 35.4347 41.25Z" fill="#C9C6C6"/>
</svg>
