<svg width="38" height="38" viewBox="0 0 38 38" fill="none" xmlns="http://www.w3.org/2000/svg">
<path d="M28.8111 21.2087C29.3443 21.4462 29.6875 21.9782 29.6875 22.5625C29.6875 25.5289 28.443 27.9514 26.4326 29.6044C24.4494 31.2348 21.7977 32.0625 19 32.0625C16.2023 32.0625 13.5494 31.2348 11.5674 29.6044C9.557 27.9514 8.3125 25.5289 8.3125 22.5625C8.31259 22.2903 8.38748 22.0235 8.529 21.791C8.67051 21.5586 8.87321 21.3695 9.11492 21.2445C9.35663 21.1195 9.62806 21.0633 9.89954 21.0821C10.171 21.101 10.4321 21.194 10.6543 21.3512L10.6661 21.3584L10.7445 21.4106C10.8229 21.4581 10.9487 21.5353 11.1209 21.6315C11.4665 21.8215 11.9997 22.0863 12.7098 22.3535C14.1265 22.8879 16.2486 23.4377 18.9988 23.4377C22.1006 23.4329 24.2155 22.876 25.5158 22.3582C25.9968 22.1736 26.4595 21.9446 26.8981 21.6742C27.0117 21.6018 27.1223 21.5245 27.2294 21.4427C27.4431 21.2566 27.7056 21.1356 27.9859 21.0939C28.2662 21.0522 28.5525 21.0917 28.8111 21.2075M26.1345 25.2961C24.4886 25.8851 22.1493 26.4005 19.0024 26.4052H19C15.941 26.4052 13.5173 25.8115 11.8156 25.1869C12.1884 26.0133 12.7492 26.7412 13.4532 27.3125C14.8141 28.4311 16.7627 29.0937 19 29.0937C21.2373 29.0937 23.1859 28.4311 24.5468 27.3125C25.2194 26.7672 25.7618 26.0776 26.1345 25.2961Z" fill="#FF8484"/>
<path d="M17.8125 14.25C17.8125 14.3038 17.8117 14.3569 17.8101 14.4091C17.7757 13.3161 17.3404 12.2739 16.587 11.4812C15.8336 10.6886 14.8148 10.2009 13.7249 10.111C12.635 10.0212 11.5502 10.3356 10.6772 10.9942C9.80421 11.6529 9.20409 12.6097 8.99124 13.6824C8.77839 14.755 8.96769 15.8685 9.52306 16.8106C10.0784 17.7527 10.961 18.4574 12.0026 18.7906C13.0442 19.1237 14.172 19.0619 15.171 18.617C16.17 18.1721 16.9703 17.3751 17.4194 16.378C16.9207 17.6712 15.9855 18.7493 14.7757 19.4256C13.5659 20.1019 12.1577 20.3338 10.7949 20.0812C9.43214 19.8287 8.20058 19.1075 7.31349 18.0425C6.4264 16.9776 5.93964 15.636 5.9375 14.25C5.9375 12.6753 6.56306 11.1651 7.67655 10.0516C8.79005 8.93806 10.3003 8.3125 11.875 8.3125C13.4497 8.3125 14.9599 8.93806 16.0734 10.0516C17.1869 11.1651 17.8125 12.6753 17.8125 14.25ZM32.0625 14.25C32.0641 15.6382 31.5792 16.9831 30.6921 18.0508C29.805 19.1186 28.5718 19.8419 27.2069 20.0948C25.8419 20.3477 24.4315 20.1144 23.2207 19.4354C22.0099 18.7564 21.0753 17.6746 20.5794 16.378C21.0279 17.3754 21.8278 18.1728 22.8265 18.6184C23.8252 19.0639 24.953 19.1264 25.9948 18.7939C27.0366 18.4613 27.9196 17.7571 28.4755 16.8153C29.0315 15.8736 29.2214 14.7602 29.0092 13.6874C28.797 12.6146 28.1974 11.6574 27.3247 10.9982C26.4521 10.3391 25.3675 10.0241 24.2775 10.1133C23.1876 10.2025 22.1685 10.6896 21.4147 11.4819C20.6608 12.2741 20.2249 13.3161 20.1899 14.4091L20.1875 14.25C20.1875 12.6753 20.8131 11.1651 21.9266 10.0516C23.0401 8.93806 24.5503 8.3125 26.125 8.3125C27.6997 8.3125 29.2099 8.93806 30.3234 10.0516C31.4369 11.1651 32.0625 12.6753 32.0625 14.25ZM19 21.375C19.5512 21.375 20.0797 21.1561 20.4695 20.7663C20.8592 20.3766 21.0781 19.848 21.0781 19.2969C21.0781 18.7457 20.8592 18.2171 20.4695 17.8274C20.0797 17.4377 19.5512 17.2188 19 17.2188C18.4488 17.2188 17.9203 17.4377 17.5305 17.8274C17.1408 18.2171 16.9219 18.7457 16.9219 19.2969C16.9219 19.848 17.1408 20.3766 17.5305 20.7663C17.9203 21.1561 18.4488 21.375 19 21.375Z" fill="#FF8484"/>
<path d="M14.5469 17.2188C14.8978 17.2188 15.2452 17.1496 15.5694 17.0154C15.8935 16.8811 16.1881 16.6843 16.4362 16.4362C16.6843 16.1881 16.8811 15.8935 17.0154 15.5694C17.1496 15.2452 17.2188 14.8978 17.2188 14.5469C17.2188 14.196 17.1496 13.8486 17.0154 13.5244C16.8811 13.2002 16.6843 12.9057 16.4362 12.6576C16.1881 12.4095 15.8935 12.2127 15.5694 12.0784C15.2452 11.9441 14.8978 11.875 14.5469 11.875C13.8382 11.875 13.1586 12.1565 12.6576 12.6576C12.1565 13.1586 11.875 13.8382 11.875 14.5469C11.875 15.2555 12.1565 15.9351 12.6576 16.4362C13.1586 16.9372 13.8382 17.2188 14.5469 17.2188ZM23.4531 17.2188C23.804 17.2188 24.1514 17.1496 24.4756 17.0154C24.7998 16.8811 25.0943 16.6843 25.3424 16.4362C25.5905 16.1881 25.7873 15.8935 25.9216 15.5694C26.0559 15.2452 26.125 14.8978 26.125 14.5469C26.125 14.196 26.0559 13.8486 25.9216 13.5244C25.7873 13.2002 25.5905 12.9057 25.3424 12.6576C25.0943 12.4095 24.7998 12.2127 24.4756 12.0784C24.1514 11.9441 23.804 11.875 23.4531 11.875C22.7445 11.875 22.0649 12.1565 21.5638 12.6576C21.0628 13.1586 20.7812 13.8382 20.7812 14.5469C20.7812 15.2555 21.0628 15.9351 21.5638 16.4362C22.0649 16.9372 22.7445 17.2188 23.4531 17.2188Z" fill="#FF8484"/>
<path d="M14.6929 1.58171C14.1885 1.32239 13.6296 1.18722 13.0625 1.18746C12.5893 1.18753 12.1209 1.28186 11.6845 1.46496C11.2482 1.64805 10.8527 1.91622 10.5212 2.25383C9.37778 1.45547 7.98983 1.08505 6.60065 1.20752C5.21148 1.32999 3.90974 1.93753 2.92363 2.92363C1.93753 3.90974 1.32999 5.21148 1.20752 6.60065C1.08505 7.98983 1.45547 9.37778 2.25383 10.5212C1.91622 10.8527 1.64805 11.2482 1.46496 11.6845C1.28186 12.1209 1.18753 12.5893 1.18746 13.0625C1.18746 13.6598 1.33471 14.2238 1.59477 14.719C1.32016 16.129 1.18374 17.5623 1.18746 18.9988C1.18746 23.8212 2.64333 28.285 5.65602 31.5578C8.68414 34.846 13.1753 36.8101 18.9988 36.8101C24.8223 36.8101 29.3134 34.846 32.3403 31.5578C35.353 28.2862 36.8101 23.8212 36.8101 18.9988C36.8136 17.5635 36.6772 16.1314 36.4028 14.7226C36.664 14.2262 36.8125 13.6621 36.8125 13.0625C36.8124 12.5893 36.718 12.1209 36.535 11.6845C36.3519 11.2482 36.0837 10.8527 35.7461 10.5212C36.5444 9.37778 36.9149 7.98983 36.7924 6.60065C36.6699 5.21148 36.0624 3.90974 35.0763 2.92363C34.0902 1.93753 32.7884 1.32999 31.3993 1.20752C30.0101 1.08505 28.6221 1.45547 27.4787 2.25383C27.1472 1.91622 26.7517 1.64805 26.3154 1.46496C25.8791 1.28186 25.4106 1.18753 24.9375 1.18746C24.3496 1.18746 23.7951 1.32996 23.307 1.58171C21.8869 1.31259 20.4442 1.18057 18.9988 1.18746C17.4705 1.18746 16.0348 1.32283 14.6929 1.58171ZM3.56246 18.9988C3.56246 14.6406 4.87583 10.7931 7.40402 8.04883C9.91558 5.31995 13.737 3.56246 18.9988 3.56246C24.2606 3.56246 28.0808 5.31995 30.5935 8.04883C33.1217 10.7931 34.4351 14.6395 34.4351 18.9976C34.4351 23.3557 33.1217 27.2032 30.5935 29.9487C28.0808 32.6776 24.2606 34.4351 18.9988 34.4351C13.737 34.4351 9.91677 32.6776 7.40402 29.9487C4.87464 27.2056 3.56246 23.3581 3.56246 19" fill="#FF8484"/>
</svg>
