<svg width="42" height="38" viewBox="0 0 42 38" fill="none" xmlns="http://www.w3.org/2000/svg">
<path d="M8.33334 37.5C7.74306 37.5 7.24862 37.3 6.85 36.9C6.45139 36.5 6.25139 36.0056 6.25 35.4167C6.24862 34.8278 6.44862 34.3333 6.85 33.9333C7.25139 33.5333 7.74584 33.3333 8.33334 33.3333H33.3333C33.9236 33.3333 34.4188 33.5333 34.8188 33.9333C35.2188 34.3333 35.4181 34.8278 35.4167 35.4167C35.4153 36.0056 35.2153 36.5007 34.8167 36.9021C34.4181 37.3035 33.9236 37.5028 33.3333 37.5H8.33334ZM9.79167 30.2083C8.78473 30.2083 7.89098 29.8785 7.11042 29.2188C6.32987 28.559 5.85209 27.7257 5.67709 26.7188L3.59375 13.4896C3.52431 13.4896 3.44653 13.4986 3.36042 13.5167C3.27431 13.5347 3.19584 13.5431 3.125 13.5417C2.25695 13.5417 1.51945 13.2382 0.912505 12.6313C0.30556 12.0243 0.00139362 11.2861 4.73485e-06 10.4167C-0.00138415 9.54723 0.302782 8.80973 0.912505 8.20417C1.52223 7.59862 2.25973 7.29445 3.125 7.29167C3.99028 7.28889 4.72848 7.59306 5.33959 8.20417C5.9507 8.81528 6.25417 9.55278 6.25 10.4167C6.25 10.6597 6.22362 10.8854 6.17084 11.0938C6.11806 11.3021 6.05764 11.4931 5.98959 11.6667L12.5 14.5833L19.0104 5.67709C18.6285 5.39931 18.316 5.03473 18.0729 4.58334C17.8299 4.13195 17.7083 3.64584 17.7083 3.125C17.7083 2.25695 18.0125 1.51875 18.6208 0.910421C19.2292 0.302088 19.9667 -0.00138414 20.8333 4.74563e-06C21.7 0.00139363 22.4382 0.30556 23.0479 0.912505C23.6576 1.51945 23.9611 2.25695 23.9583 3.125C23.9583 3.64584 23.8368 4.13195 23.5938 4.58334C23.3507 5.03473 23.0382 5.39931 22.6563 5.67709L29.1667 14.5833L35.6771 11.6667C35.6076 11.4931 35.5465 11.3021 35.4938 11.0938C35.441 10.8854 35.4153 10.6597 35.4167 10.4167C35.4167 9.54862 35.7208 8.81042 36.3292 8.20209C36.9375 7.59375 37.675 7.29028 38.5417 7.29167C39.4083 7.29306 40.1465 7.59723 40.7563 8.20417C41.366 8.81112 41.6694 9.54862 41.6667 10.4167C41.6639 11.2847 41.3604 12.0229 40.7563 12.6313C40.1521 13.2396 39.4139 13.5431 38.5417 13.5417C38.4722 13.5417 38.3944 13.5333 38.3083 13.5167C38.2222 13.5 38.1438 13.491 38.0729 13.4896L35.9896 26.7188C35.816 27.7257 35.3389 28.559 34.5583 29.2188C33.7778 29.8785 32.8833 30.2083 31.875 30.2083H9.79167Z" fill="#F6FF44"/>
</svg>
