<svg width="34" height="41" viewBox="0 0 34 41" fill="none" xmlns="http://www.w3.org/2000/svg">
<path d="M17.6557 8.03545C17.8291 8.03545 17.9954 7.9649 18.118 7.83932C18.2407 7.71374 18.3096 7.54341 18.3096 7.36581C18.3096 7.18821 18.2407 7.01788 18.118 6.8923C17.9954 6.76672 17.8291 6.69617 17.6557 6.69617C17.4822 6.69617 17.3159 6.76672 17.1933 6.8923C17.0706 7.01788 17.0017 7.18821 17.0017 7.36581C17.0017 7.54341 17.0706 7.71374 17.1933 7.83932C17.3159 7.9649 17.4822 8.03545 17.6557 8.03545ZM27.4644 10.714C27.4644 11.0692 27.3266 11.4099 27.0814 11.661C26.8361 11.9122 26.5034 12.0533 26.1566 12.0533C25.8097 12.0533 25.4771 11.9122 25.2318 11.661C24.9865 11.4099 24.8487 11.0692 24.8487 10.714C24.8487 10.3588 24.9865 10.0182 25.2318 9.76701C25.4771 9.51584 25.8097 9.37474 26.1566 9.37474C26.5034 9.37474 26.8361 9.51584 27.0814 9.76701C27.3266 10.0182 27.4644 10.3588 27.4644 10.714ZM25.5027 17.4105C25.7603 17.4105 26.0154 17.3585 26.2534 17.2575C26.4914 17.1566 26.7077 17.0086 26.8898 16.8221C27.072 16.6355 27.2165 16.414 27.3151 16.1703C27.4137 15.9266 27.4644 15.6653 27.4644 15.4015C27.4644 15.1377 27.4137 14.8765 27.3151 14.6327C27.2165 14.389 27.072 14.1675 26.8898 13.981C26.7077 13.7945 26.4914 13.6465 26.2534 13.5455C26.0154 13.4446 25.7603 13.3926 25.5027 13.3926C24.9824 13.3926 24.4834 13.6042 24.1155 13.981C23.7476 14.3577 23.5409 14.8687 23.5409 15.4015C23.5409 15.9343 23.7476 16.4453 24.1155 16.8221C24.4834 17.1988 24.9824 17.4105 25.5027 17.4105ZM16.3478 24.1069C16.8681 24.1069 17.3671 23.8952 17.735 23.5185C18.1029 23.1417 18.3096 22.6308 18.3096 22.098C18.3096 21.5652 18.1029 21.0542 17.735 20.6774C17.3671 20.3007 16.8681 20.089 16.3478 20.089C15.8275 20.089 15.3286 20.3007 14.9607 20.6774C14.5928 21.0542 14.3861 21.5652 14.3861 22.098C14.3861 22.6308 14.5928 23.1417 14.9607 23.5185C15.3286 23.8952 15.8275 24.1069 16.3478 24.1069ZM10.4626 20.7587C10.4626 21.2915 10.2559 21.8024 9.88798 22.1792C9.52008 22.5559 9.0211 22.7676 8.50081 22.7676C7.98052 22.7676 7.48155 22.5559 7.11365 22.1792C6.74575 21.8024 6.53906 21.2915 6.53906 20.7587C6.53906 20.2259 6.74575 19.7149 7.11365 19.3381C7.48155 18.9614 7.98052 18.7497 8.50081 18.7497C9.0211 18.7497 9.52008 18.9614 9.88798 19.3381C10.2559 19.7149 10.4626 20.2259 10.4626 20.7587ZM22.2331 21.4283C22.5799 21.4283 22.9126 21.2872 23.1579 21.036C23.4031 20.7849 23.5409 20.4442 23.5409 20.089C23.5409 19.7338 23.4031 19.3932 23.1579 19.142C22.9126 18.8908 22.5799 18.7497 22.2331 18.7497C21.8862 18.7497 21.5536 18.8908 21.3083 19.142C21.063 19.3932 20.9252 19.7338 20.9252 20.089C20.9252 20.4442 21.063 20.7849 21.3083 21.036C21.5536 21.2872 21.8862 21.4283 22.2331 21.4283ZM17.0017 17.4105C17.3486 17.4105 17.6812 17.2694 17.9265 17.0182C18.1718 16.767 18.3096 16.4264 18.3096 16.0712C18.3096 15.716 18.1718 15.3753 17.9265 15.1241C17.6812 14.873 17.3486 14.7319 17.0017 14.7319C16.6549 14.7319 16.3222 14.873 16.077 15.1241C15.8317 15.3753 15.6939 15.716 15.6939 16.0712C15.6939 16.4264 15.8317 16.767 16.077 17.0182C16.3222 17.2694 16.6549 17.4105 17.0017 17.4105ZM11.7704 16.0712C11.7704 16.4264 11.6326 16.767 11.3873 17.0182C11.1421 17.2694 10.8094 17.4105 10.4626 17.4105C10.1157 17.4105 9.78305 17.2694 9.53779 17.0182C9.29252 16.767 9.15473 16.4264 9.15473 16.0712C9.15473 15.716 9.29252 15.3753 9.53779 15.1241C9.78305 14.873 10.1157 14.7319 10.4626 14.7319C10.8094 14.7319 11.1421 14.873 11.3873 15.1241C11.6326 15.3753 11.7704 15.716 11.7704 16.0712ZM7.19298 26.7855C7.36641 26.7855 7.53274 26.7149 7.65537 26.5893C7.778 26.4637 7.8469 26.2934 7.8469 26.1158C7.8469 25.9382 7.778 25.7679 7.65537 25.6423C7.53274 25.5167 7.36641 25.4462 7.19298 25.4462C7.01955 25.4462 6.85322 25.5167 6.73059 25.6423C6.60796 25.7679 6.53906 25.9382 6.53906 26.1158C6.53906 26.2934 6.60796 26.4637 6.73059 26.5893C6.85322 26.7149 7.01955 26.7855 7.19298 26.7855ZM15.6939 28.1247C15.6939 28.4799 15.5561 28.8206 15.3108 29.0718C15.0656 29.3229 14.7329 29.464 14.3861 29.464C14.0392 29.464 13.7066 29.3229 13.4613 29.0718C13.216 28.8206 13.0782 28.4799 13.0782 28.1247C13.0782 27.7695 13.216 27.4289 13.4613 27.1777C13.7066 26.9266 14.0392 26.7855 14.3861 26.7855C14.7329 26.7855 15.0656 26.9266 15.3108 27.1777C15.5561 27.4289 15.6939 27.7695 15.6939 28.1247ZM20.9252 11.3837C20.9252 11.5613 20.8563 11.7316 20.7337 11.8572C20.6111 11.9828 20.4448 12.0533 20.2713 12.0533C20.0979 12.0533 19.9316 11.9828 19.8089 11.8572C19.6863 11.7316 19.6174 11.5613 19.6174 11.3837C19.6174 11.2061 19.6863 11.0357 19.8089 10.9102C19.9316 10.7846 20.0979 10.714 20.2713 10.714C20.4448 10.714 20.6111 10.7846 20.7337 10.9102C20.8563 11.0357 20.9252 11.2061 20.9252 11.3837Z" fill="#F3FB57"/>
<path d="M20.1982 0.00912077C22.1809 0.116264 23.8994 1.16225 25.0254 2.36894L32.4121 9.96403C33.6336 11.2364 34.0599 12.9413 33.9958 14.5953L34.0037 20.0529C34.0037 20.5122 33.9461 21.0239 33.7264 21.5864C33.5106 22.1355 33.1667 22.6658 32.6828 23.2109C31.7372 24.2743 30.1364 25.5239 27.5038 27.206C26.8106 27.648 26.056 28.4288 25.2347 29.4868C24.4212 30.5314 23.6169 31.7475 22.7916 32.9971L22.7785 33.0158C22.0932 34.0551 21.3896 35.1185 20.6912 36.0533C19.9955 36.9841 19.2487 37.864 18.4562 38.4908C17.7198 39.0747 16.2001 39.8301 14.4908 40.0872C12.7514 40.3484 10.5869 40.1194 8.88543 38.3797C7.5462 37.0096 6.06966 35.3194 4.7749 33.8234L4.3904 33.3788C3.23951 32.0489 2.29264 30.9533 1.70803 30.3747C0.723235 29.3997 0.328268 28.0698 0.155634 27.139C0.0517183 26.5693 -0.000382142 25.9909 2.10992e-06 25.4114V25.3846L0.00654143 21.2609C-0.000635084 21.0467 -0.000635084 20.8323 0.00654143 20.6181V20.5993C0.0588548 19.2198 0.41197 17.9877 0.829169 17.1198C1.88328 14.9234 3.8058 13.7234 5.93103 12.4591C8.99398 10.6377 10.1841 8.88323 11.8281 6.4618C12.581 5.33162 13.3705 4.22743 14.1952 3.15109C16.0053 0.818049 18.1344 -0.103379 20.1982 0.00912077ZM2.6209 21.2247C2.67457 22.5802 3.21043 23.8687 4.12753 24.8475C5.31486 26.1396 6.46452 27.4674 7.57498 28.8292L7.97125 29.3114C8.80957 30.3292 9.51449 31.185 10.1253 31.8413L10.1828 31.9015L10.2312 31.9698C10.9374 32.9502 11.9484 33.3788 13.0273 33.4658C14.1403 33.5556 15.2023 33.2649 15.7777 32.9502C16.3061 32.6609 17.1457 31.8439 18.1554 30.4457C19.131 29.0931 20.1681 27.3332 21.1241 25.3431C21.9821 23.5538 23.4024 22.1355 24.7652 21.1243C26.1201 20.1198 27.543 19.4288 28.5343 19.1689C29.5544 18.9051 30.6269 17.7091 31.1304 16.0029C31.2716 15.5234 31.354 15.052 31.3802 14.6033V13.9739C31.3239 13.106 31.0401 12.3573 30.5497 11.8444L30.5471 11.8431L23.1526 4.23859L23.1421 4.22787C22.3679 3.39484 21.2392 2.74662 20.0609 2.68367C18.9558 2.62475 17.6021 3.06537 16.2433 4.81716C15.5359 5.74494 14.8585 6.69635 14.2122 7.66984C12.4467 10.2721 10.8419 12.6346 7.2454 14.7761C5.03516 16.0913 3.83196 16.935 3.17673 18.3011C2.84484 19.0233 2.65635 19.8059 2.62221 20.6033L2.6209 21.2247Z" fill="#F6FF44"/>
</svg>
