<svg width="14" height="10" viewBox="0 0 14 10" fill="none" xmlns="http://www.w3.org/2000/svg">
<path fill-rule="evenodd" clip-rule="evenodd" d="M6.99823 4.9972C6.89605 4.93825 4.57646 2.45032 4.4428 2.30356C4.28686 2.13219 4.16258 2.01075 4.01601 1.857C3.87479 1.70882 3.75214 1.57067 3.58194 1.39737C3.31023 1.12087 3.01556 0.815801 2.73284 0.499391C2.47089 0.206377 2.0352 -0.0273856 1.4911 0.00634189C0.610625 0.0610351 -0.153897 0.936228 0.0266379 2.00811C0.119345 2.55819 0.423393 2.85829 0.67176 3.12011L4.93629 7.63139C5.22254 7.93736 5.49942 8.22369 5.78423 8.53048C6.48963 9.29031 7.51859 9.27877 8.18266 8.56208C9.56092 7.07463 11.0373 5.53836 12.4372 4.06093C12.7252 3.75708 12.9992 3.46751 13.2859 3.16255C13.5398 2.89242 13.8474 2.61207 13.9609 2.05815C14.2443 0.675726 12.9317 -0.367699 11.7954 0.123223C11.3876 0.299356 11.1419 0.614247 10.8603 0.928935C10.7138 1.09251 10.5847 1.22013 10.4205 1.38289L8.71221 3.18888C8.56372 3.34465 8.4361 3.49324 8.29402 3.64455C8.14975 3.7983 7.99897 3.93261 7.8634 4.08716C7.59771 4.39021 7.46186 4.51266 7.22191 4.76607C7.16776 4.82329 7.06214 4.96064 6.99823 4.9972Z" fill="#74C5F1"/>
</svg>
