<svg width="10" height="14" viewBox="0 0 10 14" fill="none" xmlns="http://www.w3.org/2000/svg">
<path fill-rule="evenodd" clip-rule="evenodd" d="M4.1028 6.99823C4.16175 6.89605 6.64968 4.57646 6.79644 4.4428C6.96781 4.28686 7.08925 4.16258 7.243 4.01601C7.39118 3.87479 7.52933 3.75214 7.70263 3.58194C7.97913 3.31023 8.2842 3.01556 8.60061 2.73284C8.89362 2.47089 9.12739 2.0352 9.09366 1.4911C9.03897 0.610625 8.16377 -0.153897 7.09189 0.0266379C6.54182 0.119345 6.24171 0.423393 5.97989 0.67176L1.46862 4.93629C1.16264 5.22254 0.876307 5.49942 0.569519 5.78423C-0.190311 6.48963 -0.178765 7.51859 0.537919 8.18266C2.02537 9.56092 3.56164 11.0373 5.03907 12.4372C5.34292 12.7252 5.63249 12.9992 5.93746 13.2859C6.20758 13.5398 6.48793 13.8474 7.04185 13.9609C8.42427 14.2443 9.4677 12.9317 8.97678 11.7954C8.80064 11.3876 8.48575 11.1419 8.17107 10.8603C8.00749 10.7138 7.87987 10.5847 7.71711 10.4205L5.91112 8.71221C5.75535 8.56372 5.60676 8.4361 5.45545 8.29402C5.3017 8.14975 5.16739 7.99897 5.01284 7.8634C4.70979 7.59771 4.58734 7.46186 4.33393 7.22191C4.27671 7.16776 4.13937 7.06214 4.1028 6.99823Z" fill="#74C5F1"/>
</svg>
