<svg width="40" height="53" viewBox="0 0 40 53" fill="none" xmlns="http://www.w3.org/2000/svg">
<path fill-rule="evenodd" clip-rule="evenodd" d="M21.4462 5.25546C21.1576 4.76622 21.1005 4.72646 20.6536 4.35212C20.591 4.29972 20.5476 4.269 20.4553 4.2035C18.9861 3.16121 16.9549 3.18657 15.2021 3.34987C14.4868 3.4165 13.7784 3.51136 13.0908 3.69885C12.9345 3.74147 12.9213 3.71511 12.8588 3.82532C12.899 3.86699 12.8575 3.84597 12.9272 3.87402L13.722 4.06006C13.9643 4.14156 15.8425 4.80241 16.0119 4.91419C16.0853 4.96262 16.0539 4.93226 16.1093 5.00232C15.3901 4.96161 14.9664 4.95007 14.2455 5.05233C13.7274 5.12582 13.1116 5.28048 12.6521 5.44905C11.8358 5.74859 11.0132 6.05362 10.2927 6.5065C10.1494 6.59656 10.0631 6.61053 10.0481 6.78528C10.2983 6.78051 11.4016 6.42186 12.303 6.51506L10.6626 7.47363C10.5379 7.55725 10.5647 7.55453 10.4608 7.65384C10.3253 7.7833 10.2135 7.85897 10.0774 7.99763L7.53663 10.6841C7.41689 10.8127 7.28199 10.8792 7.12043 10.9963C6.95952 11.1129 6.84586 11.1863 6.65939 11.3014C6.41007 11.4554 5.84806 11.6722 5.75268 11.8821C5.80743 12.1012 5.93765 12.1764 6.16206 12.2633C6.37464 12.3456 6.60752 12.3689 6.84829 12.3833C7.44774 12.4192 7.70844 12.3074 8.22408 12.1239C8.20509 12.2253 7.9545 12.5744 7.88468 12.7168C7.78159 12.9272 7.68947 13.1667 7.58825 13.3807C7.47842 13.6128 7.39616 13.81 7.2866 14.0425C7.18256 14.2633 7.04778 14.4556 6.94314 14.6646C6.83748 14.8757 6.70144 15.0434 6.57355 15.2263L6.12526 15.7472C5.95907 15.9277 5.84883 16.0649 5.62149 16.2156C5.53565 16.2724 5.42894 16.3501 5.31635 16.4023C5.17415 16.4681 5.09639 16.4682 4.98102 16.5447C4.97392 16.903 5.55942 17.1758 5.99296 17.2233C6.65478 17.2957 6.90302 17.0331 7.41797 16.9335C7.23578 17.0697 6.92757 17.6327 6.80424 17.8616C6.34804 18.7086 5.87702 21.1374 6.91175 21.5126C7.26995 21.1963 7.64252 20.0532 8.02784 19.8107C8.02801 20.2515 7.91313 20.5451 7.96042 21.2335C8.01564 22.0376 8.33245 22.817 8.83183 23.3922C8.97065 23.5521 9.42772 23.986 9.74002 24.0185C9.83542 23.8496 9.87745 23.7513 9.93057 23.5344C9.9708 23.37 9.9777 23.1041 10.0868 23.0041C10.223 23.2556 10.2365 24.1238 10.2099 24.4271C10.186 24.7 10.1371 24.837 10.0269 25.081C9.95724 25.2352 9.77797 25.4898 9.79814 25.6222C10.0583 25.6816 11.0414 25.3045 11.3485 24.7287L11.4273 24.6161C11.6785 24.9307 11.8519 25.2601 12.1698 25.5127C12.4612 25.7443 12.924 25.9487 13.4085 25.9635C13.4777 25.6898 13.4594 25.641 13.4196 25.3559L14.3005 25.854C14.2932 25.8601 14.2815 25.8592 14.2776 25.871L14.2319 25.9031C14.0011 26.047 13.7048 26.1356 13.4683 26.2555C13.095 26.4448 12.3723 26.964 12.061 27.2812C11.8994 27.4457 11.7815 27.6115 11.6076 27.7602C11.4049 27.9336 11.226 28.1987 11.0515 28.4142C10.9894 28.4909 10.9671 28.507 10.9103 28.5844C10.735 28.8231 10.5621 29.0367 10.3702 29.2869C10.2834 29.4 10.2216 29.5104 10.139 29.6424C9.53339 30.6112 9.13894 31.3694 8.68427 32.4544C8.22001 33.5624 7.45472 34.5421 7.00052 35.6593C6.77527 36.2134 6.86212 36.5548 7.33961 36.8978C7.46986 36.9914 7.60862 37.0386 7.71236 37.1744C7.36229 37.8072 7.19117 38.4383 7.1632 39.2467C7.08797 41.4208 9.30451 42.9576 10.3616 42.5346C10.6016 42.4386 10.7554 42.2582 10.8544 42.0263C10.9075 41.9021 10.8605 41.8849 10.8561 41.874C10.8038 41.7425 10.8669 41.9618 10.8215 41.8055L11.0325 41.8074C11.1587 42.3617 10.6349 42.7705 11.655 43.3108C12.1086 43.5511 12.1631 43.3293 12.1237 43.9172C12.098 44.2996 12.1509 44.6117 12.1536 44.9592C11.9203 45.1645 11.6202 45.0952 11.5979 45.6721C11.5827 46.065 11.7916 46.4452 11.792 46.7768C11.5363 46.8615 11.2004 47.0792 10.9955 47.2295C10.6015 47.5184 9.91476 48.0716 9.7448 48.5057C9.60706 48.8575 9.65919 49.2606 9.81612 49.5357C10.1137 50.0575 10.9208 50.2049 11.6391 50.2674C12.3253 50.3271 13.4642 50.384 14.1683 50.3193C15.3719 50.2088 17.3682 49.822 18.2077 49.2501C18.4933 49.0555 18.6901 48.9833 18.7866 48.5832C18.8827 48.1848 18.7257 47.8074 18.7441 47.4132C18.7688 46.8846 18.994 46.2608 18.8972 45.7119C18.8526 45.4589 18.8059 45.4478 18.6461 45.2991C18.7032 44.8864 18.7791 44.4391 18.8166 44.026C19.2135 44.0142 20.9552 43.9664 21.2131 44.0935C21.2243 44.1313 21.3179 45.2332 21.3161 45.2713C21.3116 45.3672 21.2674 45.3515 21.2224 45.4552C21.1859 45.5393 21.1781 45.6523 21.1693 45.7425C21.1309 46.1387 21.1417 46.4928 21.2723 46.8669C21.4317 47.3235 21.129 47.9986 21.3819 48.6532C21.6135 49.2527 22.335 49.4512 22.9951 49.6921C23.3113 49.8075 23.6729 49.9151 24.0213 49.9983L25.1507 50.2306C25.6534 50.3442 27.1238 50.3321 27.6892 50.3023C28.5278 50.2581 29.3908 50.2434 29.8649 49.7744C30.7372 48.9115 29.6609 47.7007 28.8641 47.1605C28.7797 47.1033 28.7348 47.0844 28.6512 47.0256C28.5442 46.9504 28.3128 46.8073 28.2102 46.7734C28.2541 46.4248 28.3867 46.0665 28.3831 45.7069C28.3791 45.3108 28.222 45.1365 27.8821 44.9805C27.9627 43.2079 27.6569 43.6851 28.3512 43.2827C29.163 42.8122 28.7174 42.2303 28.7933 41.8702C28.8087 41.7974 28.7952 41.8319 28.8251 41.7892C29.1232 42.4334 29.5414 42.844 30.4049 42.4069C30.9883 42.1117 31.4537 41.6748 31.7842 41.2217C32.4065 40.3683 32.6162 39.3006 32.3815 38.2275C32.31 37.9004 32.1653 37.5473 32.1031 37.2423C32.3796 37.0393 32.5674 37.059 32.6494 36.6195C32.7548 36.0553 31.3995 33.0189 31.1287 32.2968C30.9113 31.7169 30.6845 31.1557 30.4142 30.64C30.1457 30.1277 29.8426 29.6621 29.5447 29.1643C29.151 28.5063 28.7914 27.9515 28.2862 27.454C27.9725 27.1451 27.7162 26.9125 27.3355 26.638C27.1067 26.473 26.8761 26.3404 26.6205 26.1719C26.4572 26.0643 25.9 25.8703 25.8218 25.7437C26.3911 25.3713 26.5635 25.557 27.3137 24.8109C27.3939 24.7311 27.4763 24.6738 27.5608 24.5738C27.6822 24.4302 27.8827 24.1912 27.9533 23.9958C28.0424 24.0864 28.0113 24.2143 27.9874 24.3583C27.965 24.4928 27.9511 24.6178 27.9302 24.7462C27.9113 24.8627 27.8924 25.0234 27.862 25.1315C27.8251 25.2627 27.7811 25.3346 27.7618 25.479C28.3487 25.5454 28.9415 25.0717 29.2397 24.6277C29.7583 23.8558 29.6252 23.7938 29.9128 23.0033C29.9904 23.0612 30.0009 23.1391 30.0227 23.2347C30.087 23.5165 30.1821 23.8175 30.3548 24.0352C30.5032 24.2222 30.9088 24.5687 31.2744 24.6141C31.2872 24.3638 30.8671 23.9955 30.8006 23.639C30.7259 23.2389 30.9567 23.2379 31.2733 22.6113C31.5502 22.0636 31.7052 21.413 31.7223 20.7888C31.7293 20.535 31.6663 20.2789 31.6754 20.0759C31.8793 20.1989 32.4278 21.2454 32.6547 21.5045C33.4743 21.1334 33.2085 19.5499 33.0589 18.9434C32.9108 18.3433 32.6422 17.735 32.2794 17.2492C32.1484 17.0737 31.9171 16.9185 31.8708 16.7491C32.3844 16.8544 32.6759 17.0088 33.2552 16.8995C33.6267 16.8295 34.2086 16.6224 34.1878 16.2574C33.9055 16.1406 33.7193 16.0455 33.4775 15.8931C33.0303 15.6112 32.6754 15.2819 32.37 14.8509C31.9064 14.1963 31.5356 13.4765 31.1748 12.7729L30.3871 11.4189C30.6642 11.4562 31.5355 12.1451 31.8957 12.3209C32.0545 12.3984 32.0431 12.3393 32.1908 12.307C32.2005 11.9224 31.3026 10.5075 31.1089 10.1847C30.5737 9.29309 29.7197 8.80349 29.5356 8.49208C30.0443 8.59487 30.6544 8.98722 30.945 9.22082C31.1727 9.40386 31.2693 9.50706 31.4693 9.73697C31.5163 9.79104 31.5444 9.80782 31.5896 9.85837C31.7432 10.0303 31.7883 10.1502 32.0788 10.1967C32.0614 9.66995 31.1677 8.75565 30.8774 8.47131C30.0945 7.70428 29.806 7.5109 28.8066 6.96583C27.9852 6.51782 26.6722 6.08174 25.7149 6.06463C25.897 5.88173 26.6496 5.7408 27.0019 5.67904C27.8632 5.52803 28.4222 5.72415 28.6311 5.64857C28.6609 5.36921 27.9596 4.98654 27.7012 4.86972C26.2637 4.21971 24.6378 4.71735 23.2808 5.15094C23.303 4.34629 23.1768 4.07221 22.8051 3.49953C22.6231 3.21907 22.0563 2.45462 21.6504 2.55608C21.5661 3.17788 22.2627 3.85067 21.6467 5.00087C21.5898 5.10704 21.5486 5.20406 21.4462 5.25546ZM19.151 29.3568C18.7493 29.478 18.3702 29.601 18.0847 30.0921C17.2292 31.5637 18.56 33.3362 20.1265 32.833C22.3651 32.1138 21.3841 28.683 19.151 29.3568ZM14.0197 21.3817C14.2639 21.4673 16.7059 21.6019 17.2069 21.5996C17.261 20.0711 17.8977 19.1965 19.5583 19.2806C21.1782 19.3627 21.9822 20.0443 21.647 21.7587C21.5141 22.4384 21.0419 22.7207 20.6806 23.0937C20.5486 23.2299 20.5233 23.2326 20.379 23.3425C20.2428 23.4462 20.1943 23.5161 20.0609 23.6295C18.8319 24.6737 18.1189 25.4976 18.0676 27.5678C18.8905 27.4145 19.896 27.4419 20.7774 27.3689C21.3348 26.5714 21.0276 26.2518 22.4939 25.1424C23.179 24.6241 24.1665 23.9668 24.6176 23.3063C26.2114 20.9726 25.2939 17.1459 20.8721 16.5648C18.6803 16.2768 16.2759 16.7721 14.921 18.3802C14.4059 18.9916 13.8491 20.3262 14.0197 21.3817Z" fill="#74C5F1"/>
</svg>
