<svg width="38" height="38" viewBox="0 0 38 38" fill="none" xmlns="http://www.w3.org/2000/svg">
<path d="M34.8332 12.9232V13.0388C34.8332 14.4004 34.8332 15.0828 34.5054 15.6402C34.1777 16.1975 33.5808 16.5284 32.3901 17.1918L31.1345 17.8885C31.999 14.9625 32.2888 11.818 32.3948 9.12952L32.4107 8.7796L32.4138 8.69727C33.4446 9.0551 34.0241 9.32268 34.3851 9.82302C34.8332 10.4453 34.8332 11.2718 34.8332 12.9232ZM3.1665 12.9232V13.0388C3.1665 14.4004 3.1665 15.0828 3.49425 15.6402C3.822 16.1975 4.41892 16.5284 5.60959 17.1918L6.86675 17.8885C6.00067 14.9625 5.71092 11.818 5.60484 9.12952L5.589 8.7796L5.58742 8.69727C4.55509 9.0551 3.97559 9.32268 3.61459 9.82302C3.1665 10.4453 3.1665 11.2733 3.1665 12.9232Z" fill="#F6FF44"/>
<path fill-rule="evenodd" clip-rule="evenodd" d="M25.93 3.71603C23.6392 3.34078 21.3211 3.157 18.9998 3.16662C16.1767 3.16662 13.8492 3.4152 12.0695 3.71603C10.2661 4.02003 9.36519 4.17203 8.61153 5.09987C7.85944 6.0277 7.89903 7.02995 7.97819 9.03445C8.25211 15.9188 9.73728 24.5195 17.8123 25.2795V30.875H15.5481C15.1822 30.8752 14.8277 31.0021 14.5448 31.2342C14.2619 31.4663 14.0682 31.7892 13.9964 32.148L13.6956 33.6458H9.49978C9.18483 33.6458 8.88279 33.7709 8.66009 33.9936C8.43739 34.2163 8.31228 34.5183 8.31228 34.8333C8.31228 35.1482 8.43739 35.4503 8.66009 35.673C8.88279 35.8957 9.18483 36.0208 9.49978 36.0208H28.4998C28.8147 36.0208 29.1168 35.8957 29.3395 35.673C29.5622 35.4503 29.6873 35.1482 29.6873 34.8333C29.6873 34.5183 29.5622 34.2163 29.3395 33.9936C29.1168 33.7709 28.8147 33.6458 28.4998 33.6458H24.3039L24.0031 32.148C23.9314 31.7892 23.7376 31.4663 23.4547 31.2342C23.1719 31.0021 22.8173 30.8752 22.4514 30.875H20.1873V25.2795C28.2623 24.5195 29.749 15.9204 30.0214 9.03445C30.1005 7.02995 30.1417 6.02612 29.388 5.09987C28.6344 4.17203 27.7334 4.02003 25.93 3.71603Z" fill="#F6FF44"/>
</svg>
