<svg width="12" height="11" viewBox="0 0 12 11" fill="none" xmlns="http://www.w3.org/2000/svg">
<path d="M5.12557 6.50032V10.8337H2.84754C2.39441 10.8337 1.95984 10.6624 1.63943 10.3577C1.31902 10.053 1.13901 9.63963 1.13901 9.20865V7.04198C1.13901 6.89833 1.19902 6.76055 1.30582 6.65897C1.41262 6.55739 1.55748 6.50032 1.70852 6.50032H5.12557ZM9.68163 6.50032C9.83267 6.50032 9.97753 6.55739 10.0843 6.65897C10.1911 6.76055 10.2511 6.89833 10.2511 7.04198V9.20865C10.2511 9.63963 10.0711 10.053 9.75072 10.3577C9.43031 10.6624 8.99574 10.8337 8.54261 10.8337H6.26458V6.50032H9.68163ZM8.25786 0.000317901C8.59416 0.000251884 8.92501 0.0811164 9.21962 0.235384C9.51422 0.389651 9.76299 0.612306 9.94279 0.88262C10.1226 1.15293 10.2275 1.46212 10.2479 1.7814C10.2682 2.10067 10.2033 2.41965 10.0592 2.70865H10.2511C10.5532 2.70865 10.8429 2.82279 11.0565 3.02595C11.2701 3.22912 11.3902 3.50467 11.3902 3.79198V4.33365C11.3902 4.62097 11.2701 4.89652 11.0565 5.09968C10.8429 5.30285 10.5532 5.41698 10.2511 5.41698H6.26458V2.70865H5.12557V5.41698H1.13901C0.836929 5.41698 0.547216 5.30285 0.33361 5.09968C0.120003 4.89652 0 4.62097 0 4.33365V3.79198C0 3.50467 0.120003 3.22912 0.33361 3.02595C0.547216 2.82279 0.836929 2.70865 1.13901 2.70865H1.33094C1.20444 2.45469 1.13889 2.17717 1.13901 1.89615C1.13901 0.84911 2.03143 0.000317901 3.12261 0.000317901C4.1221 -0.0159321 5.00882 0.591818 5.61762 1.58957L5.69508 1.72119C6.28338 0.684443 7.15301 0.034443 8.13883 0.00140129L8.25786 0.000317901ZM3.13229 1.08365C2.90573 1.08365 2.68844 1.16925 2.52824 1.32163C2.36803 1.474 2.27803 1.68066 2.27803 1.89615C2.27803 2.11164 2.36803 2.3183 2.52824 2.47068C2.68844 2.62305 2.90573 2.70865 3.13229 2.70865H4.92225C4.50025 1.67678 3.81228 1.07282 3.13229 1.08365ZM8.24818 1.08365C7.57616 1.07282 6.8899 1.67732 6.4679 2.70865H8.25786C8.48442 2.70743 8.7012 2.62066 8.86049 2.46742C9.01979 2.31418 9.10856 2.10704 9.10728 1.89155C9.106 1.67606 9.01476 1.46988 8.85365 1.31837C8.69254 1.16686 8.47474 1.08243 8.24818 1.08365Z" fill="#74C5F1"/>
</svg>
