<svg width="9" height="8" viewBox="0 0 9 8" fill="none" xmlns="http://www.w3.org/2000/svg">
<path d="M3.34959 8C3.05626 8 2.77843 7.88399 2.60041 7.68397L0.19104 4.986C0.116377 4.90274 0.0618493 4.8078 0.0305843 4.70664C-0.000680704 4.60547 -0.00806707 4.50007 0.00884886 4.39648C0.0257648 4.29289 0.06665 4.19315 0.129159 4.10298C0.191668 4.01281 0.27457 3.93399 0.373109 3.87104C0.471397 3.80759 0.583519 3.76123 0.703025 3.73464C0.822531 3.70804 0.947062 3.70173 1.06946 3.71607C1.19185 3.73041 1.30969 3.76512 1.4162 3.81819C1.52271 3.87127 1.61578 3.94167 1.69007 4.02534L3.27541 5.79922L7.26136 0.374717C7.39356 0.195615 7.60417 0.0682581 7.84701 0.0205834C8.08986 -0.0270913 8.3451 0.00880839 8.55675 0.120408C8.99708 0.352429 9.13262 0.843904 8.8575 1.21765L4.14799 7.62397C4.0676 7.73382 3.95679 7.82538 3.82517 7.89071C3.69356 7.95604 3.54513 7.99316 3.39275 7.99886L3.34959 8Z" fill="#C9C6C6"/>
</svg>
