<svg width="40" height="35" viewBox="0 0 40 35" fill="none" xmlns="http://www.w3.org/2000/svg">
<path d="M14.8871 35C13.5834 35 12.3486 34.4925 11.5574 33.6174L0.849067 21.8138C0.517233 21.4495 0.274885 21.0341 0.13593 20.5915C-0.00302517 20.1489 -0.0358537 19.6878 0.0393281 19.2346C0.11451 18.7814 0.296223 18.345 0.574039 17.9505C0.851856 17.5561 1.22031 17.2112 1.65826 16.9358C2.0951 16.6582 2.59342 16.4554 3.12455 16.339C3.65569 16.2227 4.20916 16.1951 4.75313 16.2578C5.2971 16.3205 5.82084 16.4724 6.29421 16.7046C6.76758 16.9368 7.18126 17.2448 7.51142 17.6109L14.5574 25.3716L32.2727 1.63939C32.8602 0.855815 33.7963 0.298627 34.8756 0.0900515C35.9549 -0.118524 37.0893 0.0385381 38.03 0.526783C39.987 1.54187 40.5894 3.69208 39.3667 5.32723L18.4355 33.3549C18.0782 33.8354 17.5857 34.236 17.0008 34.5219C16.4158 34.8077 15.7561 34.9701 15.0789 34.995L14.8871 35Z" fill="#00E85D"/>
</svg>
