<svg width="23" height="28" viewBox="0 0 23 28" fill="none" xmlns="http://www.w3.org/2000/svg">
<path d="M20.9164 2.52791H14.7164C14.4686 1.7913 13.9957 1.15107 13.3646 0.697524C12.7335 0.243978 11.9759 0 11.1987 0C10.4216 0 9.66399 0.243978 9.03287 0.697524C8.40175 1.15107 7.92894 1.7913 7.68111 2.52791H1.72222C1.51134 2.49741 1.29639 2.51198 1.09155 2.57065C0.886706 2.62933 0.696639 2.73077 0.533886 2.8683C0.371133 3.00583 0.239396 3.1763 0.147367 3.36848C0.0553384 3.56066 0.00511118 3.77017 0 3.98319V26.0449C0.00112751 26.2371 0.0401098 26.4272 0.114721 26.6044C0.189332 26.7816 0.29811 26.9423 0.434845 27.0775C0.57158 27.2126 0.733593 27.3195 0.911635 27.392C1.08968 27.4645 1.28026 27.5013 1.4725 27.5001H20.9164C21.1086 27.5013 21.2992 27.4645 21.4773 27.392C21.6553 27.3195 21.8173 27.2126 21.954 27.0775C22.0908 26.9423 22.1996 26.7816 22.2742 26.6044C22.3488 26.4272 22.3878 26.2371 22.3889 26.0449V3.98319C22.3878 3.79095 22.3488 3.60081 22.2742 3.42363C22.1996 3.24646 22.0908 3.08571 21.954 2.95058C21.8173 2.81544 21.6553 2.70856 21.4773 2.63604C21.2992 2.56352 21.1086 2.52677 20.9164 2.52791ZM5.41639 5.11124C5.41639 4.88286 5.50711 4.66384 5.6686 4.50235C5.83009 4.34086 6.04912 4.25013 6.2775 4.25013H9.23972V3.70763C9.23972 3.17893 9.44975 2.67188 9.8236 2.29803C10.1974 1.92419 10.7045 1.71416 11.2332 1.71416C11.7619 1.71416 12.2689 1.92419 12.6428 2.29803C13.0166 2.67188 13.2267 3.17893 13.2267 3.70763V4.29319H16.1889C16.4173 4.29319 16.6363 4.38391 16.7978 4.5454C16.9593 4.70689 17.05 4.92592 17.05 5.1543V6.7043H5.38194L5.41639 5.11124ZM17.9197 13.0593L10.0664 20.9126L5.55417 16.4004C5.32579 16.172 5.19748 15.8623 5.19748 15.5393C5.19748 15.2163 5.32579 14.9066 5.55417 14.6782C5.78255 14.4498 6.0923 14.3215 6.41528 14.3215C6.73826 14.3215 7.04801 14.4498 7.27639 14.6782L10.0836 17.4854L16.2319 11.3371C16.4603 11.1087 16.7701 10.9804 17.0931 10.9804C17.416 10.9804 17.7258 11.1087 17.9542 11.3371C18.1825 11.5655 18.3108 11.8752 18.3108 12.1982C18.3108 12.5212 18.1825 12.8309 17.9542 13.0593H17.9197Z" fill="#247CAC"/>
</svg>
