<svg width="122" height="122" viewBox="0 0 122 122" fill="none" xmlns="http://www.w3.org/2000/svg">
<path fill-rule="evenodd" clip-rule="evenodd" d="M60.9999 20.3334C53.8871 20.3321 46.8983 22.1963 40.7312 25.7401C34.5641 29.2839 29.4343 34.3833 25.8538 40.5292C22.2734 46.6751 20.3675 53.6527 20.3264 60.7653C20.2854 67.878 22.1106 74.8771 25.6199 81.0639C27.9918 77.9813 31.0409 75.4854 34.5314 73.7692C38.0219 72.0531 41.8603 71.1626 45.7499 71.1667H76.2499C80.1395 71.1626 83.9779 72.0531 87.4684 73.7692C90.9589 75.4854 94.0079 77.9813 96.3799 81.0639C99.8892 74.8771 101.714 67.878 101.673 60.7653C101.632 53.6527 99.7264 46.6751 96.146 40.5292C92.5655 34.3833 87.4357 29.2839 81.2686 25.7401C75.1014 22.1963 68.1127 20.3321 60.9999 20.3334ZM101.377 91.8864C102.014 91.0561 102.624 90.2055 103.207 89.3345C108.842 80.9607 111.846 71.0936 111.833 61C111.833 32.9248 89.0751 10.1667 60.9999 10.1667C32.9246 10.1667 10.1666 32.9248 10.1666 61C10.1505 72.1669 13.8268 83.0258 20.623 91.8864L20.5976 91.9779L22.4021 94.0773C27.1697 99.6512 33.0893 104.125 39.7527 107.19C46.4162 110.256 53.6651 111.84 60.9999 111.833C62.0979 111.833 63.1891 111.799 64.2736 111.732C73.4459 111.153 82.2873 108.087 89.8478 102.861C93.4636 100.367 96.7409 97.4142 99.5976 94.0773L101.402 91.9779L101.377 91.8864ZM60.9999 30.5C56.9553 30.5 53.0764 32.1067 50.2165 34.9666C47.3566 37.8266 45.7499 41.7055 45.7499 45.75C45.7499 49.7946 47.3566 53.6735 50.2165 56.5334C53.0764 59.3933 56.9553 61 60.9999 61C65.0444 61 68.9233 59.3933 71.7833 56.5334C74.6432 53.6735 76.2499 49.7946 76.2499 45.75C76.2499 41.7055 74.6432 37.8266 71.7833 34.9666C68.9233 32.1067 65.0444 30.5 60.9999 30.5Z" fill="#74C5F1"/>
</svg>
