<svg width="25" height="25" viewBox="0 0 25 25" fill="none" xmlns="http://www.w3.org/2000/svg">
<path fill-rule="evenodd" clip-rule="evenodd" d="M6.875 5.5C6.875 4.04131 7.45446 2.64236 8.48591 1.61091C9.51736 0.579462 10.9163 0 12.375 0C13.8337 0 15.2326 0.579462 16.2641 1.61091C17.2955 2.64236 17.875 4.04131 17.875 5.5C17.875 6.95869 17.2955 8.35764 16.2641 9.38909C15.2326 10.4205 13.8337 11 12.375 11C10.9163 11 9.51736 10.4205 8.48591 9.38909C7.45446 8.35764 6.875 6.95869 6.875 5.5ZM6.875 13.75C5.05164 13.75 3.30295 14.4743 2.01364 15.7636C0.724328 17.053 0 18.8016 0 20.625C0 21.719 0.434597 22.7682 1.20818 23.5418C1.98177 24.3154 3.03098 24.75 4.125 24.75H20.625C21.719 24.75 22.7682 24.3154 23.5418 23.5418C24.3154 22.7682 24.75 21.719 24.75 20.625C24.75 18.8016 24.0257 17.053 22.7364 15.7636C21.447 14.4743 19.6984 13.75 17.875 13.75H6.875Z" fill="#247CAC"/>
</svg>
