<svg width="24" height="25" viewBox="0 0 24 25" fill="none" xmlns="http://www.w3.org/2000/svg">
<path d="M10.5189 25C9.95168 25 9.46344 24.8125 9.0542 24.4375C8.64496 24.0625 8.3979 23.6042 8.31302 23.0625L8.02941 21C7.7563 20.8958 7.49916 20.7708 7.25798 20.625C7.01681 20.4792 6.78025 20.3229 6.54832 20.1562L4.59454 20.9688C4.06933 21.1979 3.54412 21.2188 3.01891 21.0312C2.4937 20.8438 2.08403 20.5104 1.78992 20.0312L0.308823 17.4688C0.0147057 16.9896 -0.0693277 16.4792 0.0567227 15.9375C0.182773 15.3958 0.466386 14.9479 0.907563 14.5938L2.57773 13.3438C2.55672 13.1979 2.54622 13.0571 2.54622 12.9212V12.0775C2.54622 11.9425 2.55672 11.8021 2.57773 11.6562L0.907563 10.4062C0.466386 10.0521 0.182773 9.60417 0.0567227 9.0625C-0.0693277 8.52083 0.0147057 8.01042 0.308823 7.53125L1.78992 4.96875C2.08403 4.48958 2.4937 4.15625 3.01891 3.96875C3.54412 3.78125 4.06933 3.80208 4.59454 4.03125L6.54832 4.84375C6.77941 4.67708 7.02101 4.52083 7.27311 4.375C7.52521 4.22917 7.77731 4.10417 8.02941 4L8.31302 1.9375C8.39706 1.39583 8.64412 0.9375 9.0542 0.5625C9.46428 0.1875 9.95252 0 10.5189 0H13.4811C14.0483 0 14.537 0.1875 14.9471 0.5625C15.3571 0.9375 15.6038 1.39583 15.687 1.9375L15.9706 4C16.2437 4.10417 16.5013 4.22917 16.7433 4.375C16.9853 4.52083 17.2214 4.67708 17.4517 4.84375L19.4055 4.03125C19.9307 3.80208 20.4559 3.78125 20.9811 3.96875C21.5063 4.15625 21.916 4.48958 22.2101 4.96875L23.6912 7.53125C23.9853 8.01042 24.0693 8.52083 23.9433 9.0625C23.8172 9.60417 23.5336 10.0521 23.0924 10.4062L21.4223 11.6562C21.4433 11.8021 21.4538 11.9429 21.4538 12.0788V12.9212C21.4538 13.0571 21.4328 13.1979 21.3908 13.3438L23.0609 14.5938C23.5021 14.9479 23.7857 15.3958 23.9118 15.9375C24.0378 16.4792 23.9538 16.9896 23.6597 17.4688L22.1471 20.0312C21.8529 20.5104 21.4433 20.8438 20.9181 21.0312C20.3929 21.2188 19.8676 21.1979 19.3424 20.9688L17.4517 20.1562C17.2206 20.3229 16.979 20.4792 16.7269 20.625C16.4748 20.7708 16.2227 20.8958 15.9706 21L15.687 23.0625C15.6029 23.6042 15.3563 24.0625 14.9471 24.4375C14.5378 24.8125 14.0492 25 13.4811 25H10.5189ZM12.063 16.875C13.2815 16.875 14.3214 16.4479 15.1828 15.5938C16.0441 14.7396 16.4748 13.7083 16.4748 12.5C16.4748 11.2917 16.0441 10.2604 15.1828 9.40625C14.3214 8.55208 13.2815 8.125 12.063 8.125C10.8235 8.125 9.77815 8.55208 8.92689 9.40625C8.07563 10.2604 7.65042 11.2917 7.65126 12.5C7.6521 13.7083 8.07773 14.7396 8.92815 15.5938C9.77857 16.4479 10.8235 16.875 12.063 16.875Z" fill="#247CAC"/>
</svg>
