<svg width="15" height="15" viewBox="0 0 15 15" fill="none" xmlns="http://www.w3.org/2000/svg">
<rect x="1" y="1" width="13" height="13" rx="3" fill="#74C5F1" stroke="#74C5F1" stroke-width="2"/>
<path d="M6.34959 11C6.05626 11 5.77843 10.884 5.60041 10.684L3.19104 7.986C3.11638 7.90274 3.06185 7.8078 3.03058 7.70664C2.99932 7.60547 2.99193 7.50007 3.00885 7.39648C3.02576 7.29289 3.06665 7.19315 3.12916 7.10298C3.19167 7.01281 3.27457 6.93399 3.37311 6.87104C3.4714 6.80759 3.58352 6.76123 3.70302 6.73464C3.82253 6.70804 3.94706 6.70173 4.06946 6.71607C4.19185 6.73041 4.30969 6.76512 4.4162 6.81819C4.52271 6.87127 4.61578 6.94167 4.69007 7.02534L6.27541 8.79922L10.2614 3.37472C10.3936 3.19561 10.6042 3.06826 10.847 3.02058C11.0899 2.97291 11.3451 3.00881 11.5567 3.12041C11.9971 3.35243 12.1326 3.8439 11.8575 4.21765L7.14799 10.624C7.0676 10.7338 6.95679 10.8254 6.82517 10.8907C6.69356 10.956 6.54513 10.9932 6.39275 10.9989L6.34959 11Z" fill="white"/>
</svg>
