<svg width="33" height="33" viewBox="0 0 33 33" fill="none" xmlns="http://www.w3.org/2000/svg">
<path fill-rule="evenodd" clip-rule="evenodd" d="M16.5 3.3C14.1913 3.29958 11.9228 3.9047 9.92099 5.05499C7.9192 6.20527 6.25412 7.86047 5.09194 9.85537C3.92976 11.8503 3.31114 14.1151 3.29781 16.4238C3.28449 18.7325 3.87693 21.0044 5.01601 23.0125C5.78592 22.0119 6.77562 21.2018 7.9086 20.6448C9.04158 20.0877 10.2875 19.7987 11.55 19.8H21.45C22.7125 19.7987 23.9584 20.0877 25.0914 20.6448C26.2244 21.2018 27.2141 22.0119 27.984 23.0125C29.1231 21.0044 29.7155 18.7325 29.7022 16.4238C29.6889 14.1151 29.0702 11.8503 27.9081 9.85537C26.7459 7.86047 25.0808 6.20527 23.079 5.05499C21.0772 3.9047 18.8087 3.29958 16.5 3.3ZM29.6059 26.5254C29.8127 26.2559 30.0107 25.9798 30.1999 25.6971C32.0292 22.979 33.0043 19.7763 33 16.5C33 7.38705 25.6129 0 16.5 0C7.38706 0 1.69215e-05 7.38705 1.69215e-05 16.5C-0.00518276 20.1246 1.18808 23.6493 3.39406 26.5254L3.38581 26.5551L3.97156 27.2365C5.51907 29.0458 7.44049 30.498 9.60339 31.493C11.7663 32.4879 14.1192 33.0021 16.5 33C16.8564 33 17.2106 32.989 17.5626 32.967C20.5398 32.7793 23.4097 31.7839 25.8637 30.0877C27.0374 29.2781 28.1012 28.3197 29.0284 27.2365L29.6142 26.5551L29.6059 26.5254ZM16.5 6.6C15.1872 6.6 13.9281 7.12152 12.9998 8.04982C12.0715 8.97813 11.55 10.2372 11.55 11.55C11.55 12.8628 12.0715 14.1219 12.9998 15.0502C13.9281 15.9785 15.1872 16.5 16.5 16.5C17.8128 16.5 19.0719 15.9785 20.0002 15.0502C20.9285 14.1219 21.45 12.8628 21.45 11.55C21.45 10.2372 20.9285 8.97813 20.0002 8.04982C19.0719 7.12152 17.8128 6.6 16.5 6.6Z" fill="#F6FF44"/>
<path d="M16.4998 17.0417C16.7097 17.0417 16.9111 17.1251 17.0596 17.2736C17.208 17.422 17.2914 17.6234 17.2914 17.8334V18.625C17.2914 18.835 17.208 19.0364 17.0596 19.1848C16.9111 19.3333 16.7097 19.4167 16.4998 19.4167C16.2898 19.4167 16.0884 19.3333 15.94 19.1848C15.7915 19.0364 15.7081 18.835 15.7081 18.625V17.8334C15.7081 17.6234 15.7915 17.422 15.94 17.2736C16.0884 17.1251 16.2898 17.0417 16.4998 17.0417ZM21.5379 15.4188L22.0976 15.9785C22.2419 16.1278 22.3217 16.3278 22.3198 16.5354C22.318 16.7429 22.2348 16.9415 22.088 17.0883C21.9412 17.2351 21.7427 17.3183 21.5351 17.3201C21.3275 17.3219 21.1275 17.2421 20.9782 17.0979L20.4185 16.5382C20.2743 16.3889 20.1945 16.1889 20.1963 15.9813C20.1981 15.7738 20.2814 15.5752 20.4282 15.4284C20.5749 15.2817 20.7735 15.1984 20.9811 15.1966C21.1887 15.1948 21.3886 15.2746 21.5379 15.4188ZM11.4616 15.4188C11.6041 15.2768 11.7952 15.1944 11.9963 15.1882C12.1973 15.1821 12.3932 15.2527 12.544 15.3857C12.6949 15.5188 12.7895 15.7042 12.8085 15.9045C12.8276 16.1047 12.7698 16.3047 12.6467 16.4638L12.581 16.5382L12.0213 17.0979C11.8788 17.2399 11.6877 17.3223 11.4866 17.3285C11.2856 17.3346 11.0898 17.264 10.9389 17.131C10.788 16.9979 10.6934 16.8125 10.6744 16.6122C10.6553 16.412 10.7132 16.212 10.8362 16.0529L10.9019 15.9785L11.4616 15.4188ZM16.4998 6.75004C17.7596 6.75004 18.9677 7.25049 19.8585 8.14128C20.7493 9.03208 21.2498 10.2403 21.2498 11.5C21.2498 12.7598 20.7493 13.968 19.8585 14.8588C18.9677 15.7496 17.7596 16.25 16.4998 16.25C15.24 16.25 14.0318 15.7496 13.141 14.8588C12.2502 13.968 11.7498 12.7598 11.7498 11.5C11.7498 10.2403 12.2502 9.03208 13.141 8.14128C14.0318 7.25049 15.24 6.75004 16.4998 6.75004ZM10.1664 10.7084C10.3682 10.7086 10.5623 10.7859 10.709 10.9244C10.8557 11.0629 10.944 11.2522 10.9559 11.4536C10.9677 11.6551 10.9022 11.8534 10.7726 12.0082C10.6431 12.1629 10.4594 12.2623 10.2591 12.2862L10.1664 12.2917H9.37477C9.17299 12.2915 8.97892 12.2142 8.83219 12.0757C8.68547 11.9372 8.59717 11.7479 8.58535 11.5464C8.57352 11.345 8.63906 11.1467 8.76857 10.9919C8.89808 10.8372 9.08178 10.7377 9.28215 10.7139L9.37477 10.7084H10.1664ZM23.6248 10.7084C23.8347 10.7084 24.0361 10.7918 24.1846 10.9402C24.333 11.0887 24.4164 11.2901 24.4164 11.5C24.4164 11.71 24.333 11.9114 24.1846 12.0598C24.0361 12.2083 23.8347 12.2917 23.6248 12.2917H22.8331C22.6231 12.2917 22.4218 12.2083 22.2733 12.0598C22.1248 11.9114 22.0414 11.71 22.0414 11.5C22.0414 11.2901 22.1248 11.0887 22.2733 10.9402C22.4218 10.7918 22.6231 10.7084 22.8331 10.7084H23.6248ZM10.9019 5.90217C11.0382 5.76586 11.2196 5.68398 11.412 5.67188C11.6044 5.65978 11.7946 5.7183 11.9469 5.83646L12.0213 5.90217L12.581 6.46187C12.723 6.60434 12.8054 6.79551 12.8116 6.99655C12.8177 7.1976 12.7471 7.39344 12.6141 7.5443C12.4811 7.69517 12.2956 7.78974 12.0954 7.80881C11.8951 7.82789 11.6951 7.77003 11.536 7.647L11.4616 7.58129L10.9019 7.02158C10.7535 6.87312 10.6701 6.6718 10.6701 6.46187C10.6701 6.25195 10.7535 6.05062 10.9019 5.90217ZM22.0976 5.90217C22.2461 6.05062 22.3294 6.25195 22.3294 6.46187C22.3294 6.6718 22.2461 6.87312 22.0976 7.02158L21.5379 7.58129C21.4649 7.6569 21.3776 7.71721 21.281 7.7587C21.1844 7.80019 21.0805 7.82203 20.9754 7.82295C20.8703 7.82386 20.766 7.80383 20.6687 7.76402C20.5714 7.72422 20.483 7.66543 20.4087 7.5911C20.3344 7.51677 20.2756 7.42838 20.2358 7.33109C20.196 7.23379 20.176 7.12955 20.1769 7.02443C20.1778 6.91931 20.1996 6.81543 20.2411 6.71885C20.2826 6.62226 20.3429 6.5349 20.4185 6.46187L20.9782 5.90217C21.1267 5.75375 21.328 5.67038 21.5379 5.67038C21.7479 5.67038 21.9492 5.75375 22.0976 5.90217ZM16.4998 3.58337C16.7097 3.58337 16.9111 3.66678 17.0596 3.81525C17.208 3.96371 17.2914 4.16508 17.2914 4.37504V5.16671C17.2914 5.37667 17.208 5.57803 17.0596 5.7265C16.9111 5.87497 16.7097 5.95837 16.4998 5.95837C16.2898 5.95837 16.0884 5.87497 15.94 5.7265C15.7915 5.57803 15.7081 5.37667 15.7081 5.16671V4.37504C15.7081 4.16508 15.7915 3.96371 15.94 3.81525C16.0884 3.66678 16.2898 3.58337 16.4998 3.58337Z" fill="#F6FF44"/>
</svg>
