<svg width="33" height="33" viewBox="0 0 33 33" fill="none" xmlns="http://www.w3.org/2000/svg">
<path fill-rule="evenodd" clip-rule="evenodd" d="M16.5 3.3C14.1913 3.29958 11.9228 3.9047 9.92099 5.05499C7.9192 6.20527 6.25412 7.86047 5.09194 9.85537C3.92976 11.8503 3.31114 14.1151 3.29781 16.4238C3.28449 18.7325 3.87693 21.0044 5.01601 23.0125C5.78592 22.0119 6.77562 21.2018 7.9086 20.6448C9.04158 20.0877 10.2875 19.7987 11.55 19.8H21.45C22.7125 19.7987 23.9584 20.0877 25.0914 20.6448C26.2244 21.2018 27.2141 22.0119 27.984 23.0125C29.1231 21.0044 29.7155 18.7325 29.7022 16.4238C29.6889 14.1151 29.0702 11.8503 27.9081 9.85537C26.7459 7.86047 25.0808 6.20527 23.079 5.05499C21.0772 3.9047 18.8087 3.29958 16.5 3.3ZM29.6059 26.5254C29.8127 26.2559 30.0107 25.9798 30.1999 25.6971C32.0292 22.979 33.0043 19.7763 33 16.5C33 7.38705 25.6129 0 16.5 0C7.38706 0 1.69215e-05 7.38705 1.69215e-05 16.5C-0.00518276 20.1246 1.18808 23.6493 3.39406 26.5254L3.38581 26.5551L3.97156 27.2365C5.51907 29.0458 7.44049 30.498 9.60339 31.493C11.7663 32.4879 14.1192 33.0021 16.5 33C16.8564 33 17.2106 32.989 17.5626 32.967C20.5398 32.7793 23.4097 31.7839 25.8637 30.0877C27.0374 29.2781 28.1012 28.3197 29.0284 27.2365L29.6142 26.5551L29.6059 26.5254ZM16.5 6.6C15.1872 6.6 13.9281 7.12152 12.9998 8.04982C12.0715 8.97813 11.55 10.2372 11.55 11.55C11.55 12.8628 12.0715 14.1219 12.9998 15.0502C13.9281 15.9785 15.1872 16.5 16.5 16.5C17.8128 16.5 19.0719 15.9785 20.0002 15.0502C20.9285 14.1219 21.45 12.8628 21.45 11.55C21.45 10.2372 20.9285 8.97813 20.0002 8.04982C19.0719 7.12152 17.8128 6.6 16.5 6.6Z" fill="#00E85D"/>
<path d="M13.7502 10.125C13.3855 10.125 13.0358 10.2699 12.7779 10.5278C12.52 10.7856 12.3752 11.1354 12.3752 11.5C12.3752 11.8647 12.52 12.2145 12.7779 12.4723C13.0358 12.7302 13.3855 12.875 13.7502 12.875C14.1148 12.875 14.4646 12.7302 14.7224 12.4723C14.9803 12.2145 15.1252 11.8647 15.1252 11.5C15.1252 11.1354 14.9803 10.7856 14.7224 10.5278C14.4646 10.2699 14.1148 10.125 13.7502 10.125ZM11.4585 11.5C11.4585 11.0649 11.5824 10.6389 11.8157 10.2716C12.049 9.90431 12.382 9.61103 12.7758 9.42605C13.1697 9.24106 13.608 9.17201 14.0396 9.22697C14.4712 9.28192 14.8783 9.45861 15.2132 9.73637C15.5561 9.39813 16.0185 9.20846 16.5002 9.20837C17.002 9.20837 17.4562 9.41004 17.7872 9.73637C18.2242 9.37435 18.7799 9.18733 19.3469 9.21153C19.9138 9.23572 20.4516 9.46941 20.8562 9.86735C21.2608 10.2653 21.5033 10.7992 21.5368 11.3657C21.5704 11.9321 21.3925 12.4909 21.0378 12.9338C20.683 13.3767 20.1765 13.6722 19.6164 13.7632C19.0562 13.8541 18.4823 13.734 18.0056 13.426C17.529 13.1181 17.1835 12.6443 17.0361 12.0963C16.8888 11.5483 16.9499 10.9651 17.2078 10.4596C17.1219 10.3551 17.0139 10.2708 16.8915 10.213C16.7692 10.1551 16.6355 10.1251 16.5002 10.125C16.216 10.125 15.9607 10.2547 15.7925 10.4596C15.9496 10.7683 16.0347 11.1086 16.0414 11.4549C16.0481 11.8012 15.9762 12.1445 15.8311 12.459C15.686 12.7736 15.4715 13.0511 15.2038 13.2708C14.936 13.4905 14.6219 13.6467 14.2851 13.7275C13.9483 13.8084 13.5976 13.8118 13.2592 13.7376C12.9209 13.6634 12.6038 13.5135 12.3317 13.2991C12.0597 13.0847 11.8398 12.8114 11.6885 12.4998C11.5373 12.1882 11.4586 11.8464 11.4585 11.5ZM19.2502 10.125C19.0695 10.1248 18.8906 10.1602 18.7237 10.2292C18.5568 10.2982 18.4051 10.3995 18.2774 10.5272C18.1496 10.655 18.0484 10.8066 17.9793 10.9736C17.9103 11.1405 17.8749 11.3194 17.8752 11.5C17.8752 11.772 17.9558 12.0378 18.1069 12.2639C18.258 12.4901 18.4727 12.6663 18.724 12.7704C18.9752 12.8744 19.2517 12.9017 19.5184 12.8486C19.7851 12.7956 20.0301 12.6646 20.2224 12.4723C20.4147 12.28 20.5457 12.035 20.5987 11.7683C20.6518 11.5016 20.6246 11.2251 20.5205 10.9739C20.4164 10.7226 20.2402 10.5079 20.0141 10.3568C19.788 10.2057 19.5221 10.125 19.2502 10.125Z" fill="white"/>
<path d="M13.8476 20.4349C14.112 20.4112 14.3783 20.4896 14.5976 20.6212L15.7328 21.3022C15.941 21.108 16.2152 21 16.5 21C16.7962 21 17.0662 21.1147 17.2673 21.3022L18.4024 20.6212C18.6217 20.4896 18.888 20.4112 19.1524 20.4345C19.4284 20.4592 19.698 20.5969 19.8656 20.877C20.0764 21.2284 20.25 21.7489 20.25 22.5C20.25 23.2511 20.0764 23.7712 19.8656 24.123C19.698 24.4031 19.4284 24.5407 19.1524 24.5655C18.888 24.5887 18.6217 24.5104 18.4024 24.3787L17.2673 23.6977C17.059 23.892 16.7848 24 16.5 24C16.2152 24 15.941 23.892 15.7328 23.6977L14.5976 24.3787C14.3783 24.5104 14.112 24.5887 13.8476 24.5651C13.5716 24.5407 13.302 24.4031 13.1344 24.123C12.9236 23.7716 12.75 23.2511 12.75 22.5C12.75 21.7489 12.9236 21.2287 13.1344 20.877C13.302 20.5969 13.5716 20.4596 13.8476 20.4349Z" fill="white"/>
</svg>
