<svg width="150" height="150" viewBox="0 0 33 33" fill="none" xmlns="http://www.w3.org/2000/svg">
<path fill-rule="evenodd" clip-rule="evenodd" d="M16.5 3.3C14.1913 3.29958 11.9228 3.9047 9.92099 5.05499C7.9192 6.20527 6.25412 7.86047 5.09194 9.85537C3.92976 11.8503 3.31114 14.1151 3.29781 16.4238C3.28449 18.7325 3.87693 21.0044 5.01601 23.0125C5.78592 22.0119 6.77562 21.2018 7.9086 20.6448C9.04158 20.0877 10.2875 19.7987 11.55 19.8H21.45C22.7125 19.7987 23.9584 20.0877 25.0914 20.6448C26.2244 21.2018 27.2141 22.0119 27.984 23.0125C29.1231 21.0044 29.7155 18.7325 29.7022 16.4238C29.6889 14.1151 29.0702 11.8503 27.9081 9.85537C26.7459 7.86047 25.0808 6.20527 23.079 5.05499C21.0772 3.9047 18.8087 3.29958 16.5 3.3ZM29.6059 26.5254C29.8127 26.2559 30.0107 25.9798 30.1999 25.6971C32.0292 22.979 33.0043 19.7763 33 16.5C33 7.38705 25.6129 0 16.5 0C7.38706 0 1.69215e-05 7.38705 1.69215e-05 16.5C-0.00518276 20.1246 1.18808 23.6493 3.39406 26.5254L3.38581 26.5551L3.97156 27.2365C5.51907 29.0458 7.44049 30.498 9.60339 31.493C11.7663 32.4879 14.1192 33.0021 16.5 33C16.8564 33 17.2106 32.989 17.5626 32.967C20.5398 32.7793 23.4097 31.7839 25.8637 30.0877C27.0374 29.2781 28.1012 28.3197 29.0284 27.2365L29.6142 26.5551L29.6059 26.5254ZM16.5 6.6C15.1872 6.6 13.9281 7.12152 12.9998 8.04982C12.0715 8.97813 11.55 10.2372 11.55 11.55C11.55 12.8628 12.0715 14.1219 12.9998 15.0502C13.9281 15.9785 15.1872 16.5 16.5 16.5C17.8128 16.5 19.0719 15.9785 20.0002 15.0502C20.9285 14.1219 21.45 12.8628 21.45 11.55C21.45 10.2372 20.9285 8.97813 20.0002 8.04982C19.0719 7.12152 17.8128 6.6 16.5 6.6Z" fill="#FF8484"/>
<g clip-path="url(#clip0_2296_6)">
<path d="M11.4818 6.40038C11.3228 6.54753 11.3002 6.7579 11.3329 7.00802C11.3655 7.2564 11.4583 7.58268 11.5771 8.00044L11.6131 8.12701C11.7114 8.47274 11.7888 8.74502 11.8771 8.93934C11.9667 9.13695 12.0802 9.28252 12.2666 9.33295C12.4524 9.38293 12.6253 9.31544 12.806 9.1915C12.9839 9.06929 13.194 8.87481 13.4613 8.6274L13.5496 8.54562C13.8169 8.29821 14.027 8.10373 14.1625 7.93578C14.3 7.7652 14.3806 7.59794 14.345 7.40879C14.3092 7.21919 14.1728 7.0948 13.9826 6.99027C13.7958 6.88739 13.5303 6.78904 13.1931 6.66436L13.0697 6.61873C12.6623 6.4681 12.3442 6.35042 12.0991 6.2988C11.8521 6.24678 11.6407 6.25322 11.4818 6.40038Z" fill="#FF8484"/>
</g>
<g clip-path="url(#clip1_2296_6)">
<path d="M21.4408 6.35932C21.2659 6.23149 21.0551 6.24961 20.8159 6.32965C20.5784 6.40921 20.2759 6.56281 19.8887 6.75944L19.7713 6.819C19.4508 6.98175 19.1984 7.10986 19.0246 7.23374C18.8478 7.35961 18.7267 7.49891 18.7129 7.69149C18.6995 7.88336 18.7988 8.04021 18.9551 8.19378C19.1091 8.34497 19.3403 8.51391 19.6343 8.72883L19.7315 8.79987C20.0255 9.01479 20.2566 9.18373 20.4475 9.2846C20.6412 9.38687 20.8208 9.43395 20.9996 9.36275C21.1789 9.29127 21.2748 9.13358 21.341 8.92685C21.4062 8.72376 21.4518 8.44434 21.5096 8.08958L21.5307 7.9597C21.6005 7.53102 21.6551 7.19622 21.6588 6.94573C21.6625 6.69339 21.6157 6.48716 21.4408 6.35932Z" fill="#FF8484"/>
</g>
<defs>
<clipPath id="clip0_2296_6">
<rect width="3.66647" height="3.66647" fill="white" transform="translate(9.90283 7.39343) rotate(-42.7901)"/>
</clipPath>
<clipPath id="clip1_2296_6">
<rect width="3.66647" height="3.66647" fill="white" transform="translate(20.1636 5) rotate(36.1645)"/>
</clipPath>
</defs>
</svg>
