<svg width="33" height="33" viewBox="0 0 33 33" fill="none" xmlns="http://www.w3.org/2000/svg">
<path fill-rule="evenodd" clip-rule="evenodd" d="M16.5 3.3C14.1913 3.29958 11.9228 3.9047 9.92099 5.05499C7.9192 6.20527 6.25412 7.86047 5.09194 9.85537C3.92976 11.8503 3.31114 14.1151 3.29781 16.4238C3.28449 18.7325 3.87693 21.0044 5.01601 23.0125C5.78592 22.0119 6.77562 21.2018 7.9086 20.6448C9.04158 20.0877 10.2875 19.7987 11.55 19.8H21.45C22.7125 19.7987 23.9584 20.0877 25.0914 20.6448C26.2244 21.2018 27.2141 22.0119 27.984 23.0125C29.1231 21.0044 29.7155 18.7325 29.7022 16.4238C29.6889 14.1151 29.0702 11.8503 27.9081 9.85537C26.7459 7.86047 25.0808 6.20527 23.079 5.05499C21.0772 3.9047 18.8087 3.29958 16.5 3.3ZM29.6059 26.5254C29.8127 26.2559 30.0107 25.9798 30.1999 25.6971C32.0292 22.979 33.0043 19.7763 33 16.5C33 7.38705 25.6129 0 16.5 0C7.38706 0 1.69215e-05 7.38705 1.69215e-05 16.5C-0.00518276 20.1246 1.18808 23.6493 3.39406 26.5254L3.38581 26.5551L3.97156 27.2365C5.51907 29.0458 7.44049 30.498 9.60339 31.493C11.7663 32.4879 14.1192 33.0021 16.5 33C16.8564 33 17.2106 32.989 17.5626 32.967C20.5398 32.7793 23.4097 31.7839 25.8637 30.0877C27.0374 29.2781 28.1012 28.3197 29.0284 27.2365L29.6142 26.5551L29.6059 26.5254ZM16.5 6.6C15.1872 6.6 13.9281 7.12152 12.9998 8.04982C12.0715 8.97813 11.55 10.2372 11.55 11.55C11.55 12.8628 12.0715 14.1219 12.9998 15.0502C13.9281 15.9785 15.1872 16.5 16.5 16.5C17.8128 16.5 19.0719 15.9785 20.0002 15.0502C20.9285 14.1219 21.45 12.8628 21.45 11.55C21.45 10.2372 20.9285 8.97813 20.0002 8.04982C19.0719 7.12152 17.8128 6.6 16.5 6.6Z" fill="#74C5F1"/>
<path d="M16.5 22C16.8713 22 17.2273 22.1341 17.4899 22.3728C17.7524 22.6115 17.8999 22.9352 17.8999 23.2727L17.8992 23.2902L17.9097 23.2845C18.2046 23.129 18.5521 23.0774 18.8861 23.1397L18.969 23.1575C19.1458 23.201 19.3114 23.2758 19.4562 23.3776C19.6011 23.4795 19.7224 23.6063 19.8132 23.751C19.9978 24.043 20.0478 24.3896 19.9524 24.7152C19.8571 25.0407 19.6239 25.3187 19.3039 25.4885L19.2802 25.5L19.305 25.5124C19.6135 25.6764 19.8415 25.9412 19.9426 26.2528C20.0438 26.5643 20.0103 26.8993 19.8492 27.1892L19.8139 27.2484C19.7231 27.3932 19.6016 27.5203 19.4566 27.6222C19.3115 27.7242 19.1457 27.799 18.9687 27.8424C18.7917 27.8858 18.607 27.897 18.4253 27.8752C18.2435 27.8534 18.0683 27.7991 17.9097 27.7155L17.8992 27.7091L17.8999 27.7273C17.8999 28.0538 17.7618 28.3678 17.5143 28.6044C17.2668 28.841 16.9287 28.9821 16.57 28.9984L16.5 29C16.1287 29 15.7727 28.8659 15.5101 28.6272C15.2476 28.3885 15.1001 28.0648 15.1001 27.7273L15.1005 27.7095L15.0903 27.7155C14.7955 27.8712 14.4479 27.9228 14.1139 27.8606L14.0313 27.8428C13.8545 27.7994 13.6888 27.7246 13.5439 27.6227C13.399 27.5209 13.2776 27.394 13.1868 27.2494C13.0023 26.9574 12.9522 26.6109 13.0474 26.2855C13.1427 25.96 13.3756 25.682 13.6954 25.5121L13.7198 25.5L13.695 25.4879C13.3865 25.3239 13.1585 25.0591 13.0574 24.7476C12.9562 24.436 12.9897 24.101 13.1508 23.8111L13.1858 23.7516C13.2766 23.6067 13.3981 23.4795 13.5432 23.3775C13.6883 23.2754 13.8542 23.2005 14.0314 23.1571C14.2085 23.1137 14.3933 23.1026 14.5752 23.1245C14.7571 23.1463 14.9324 23.2007 15.091 23.2845L15.1001 23.2902V23.2727C15.1001 22.9462 15.2382 22.6322 15.4857 22.3956C15.7332 22.159 16.0713 22.0179 16.43 22.0016L16.5 22ZM16.5 24.5455C16.2215 24.5455 15.9545 24.646 15.7576 24.825C15.5607 25.004 15.4501 25.2468 15.4501 25.5C15.4501 25.7532 15.5607 25.996 15.7576 26.175C15.9545 26.354 16.2215 26.4545 16.5 26.4545C16.7785 26.4545 17.0455 26.354 17.2424 26.175C17.4393 25.996 17.5499 25.7532 17.5499 25.5C17.5499 25.2468 17.4393 25.004 17.2424 24.825C17.0455 24.646 16.7785 24.5455 16.5 24.5455Z" fill="white"/>
<g clip-path="url(#clip0_2296_8)">
<path d="M25.5 8.20837C25.721 8.20837 25.933 8.29617 26.0893 8.45245C26.2456 8.60873 26.3334 8.82069 26.3334 9.04171L26.3329 9.05317L26.3392 9.04942C26.5147 8.94757 26.7216 8.91383 26.9204 8.95462L26.9698 8.96629C27.075 8.99474 27.1736 9.04372 27.2599 9.1104C27.3461 9.17708 27.4183 9.26015 27.4723 9.35483C27.5822 9.54608 27.612 9.77302 27.5552 9.98616C27.4985 10.1993 27.3597 10.3813 27.1692 10.4925L27.155 10.5L27.1698 10.5082C27.3534 10.6155 27.4892 10.7889 27.5494 10.9929C27.6096 11.1969 27.5897 11.4162 27.4938 11.6061L27.4727 11.6448C27.4187 11.7396 27.3464 11.8228 27.2601 11.8896C27.1737 11.9563 27.075 12.0053 26.9696 12.0338C26.8643 12.0622 26.7543 12.0695 26.6461 12.0552C26.5379 12.041 26.4336 12.0054 26.3392 11.9507L26.3329 11.9465L26.3334 11.9584C26.3334 12.1722 26.2512 12.3778 26.1038 12.5327C25.9565 12.6876 25.7552 12.78 25.5417 12.7907L25.5 12.7917C25.279 12.7917 25.067 12.7039 24.9108 12.5476C24.7545 12.3913 24.6667 12.1794 24.6667 11.9584L24.6669 11.9467L24.6609 11.9507C24.4853 12.0526 24.2785 12.0864 24.0796 12.0457L24.0304 12.034C23.9252 12.0056 23.8266 11.9566 23.7403 11.8899C23.654 11.8232 23.5818 11.7402 23.5277 11.6455C23.4179 11.4543 23.388 11.2274 23.4447 11.0143C23.5014 10.8013 23.6401 10.6192 23.8304 10.508L23.845 10.5L23.8302 10.4921C23.6466 10.3848 23.5109 10.2114 23.4507 10.0074C23.3905 9.80336 23.4104 9.58406 23.5063 9.39421L23.5271 9.35525C23.5812 9.26035 23.6535 9.17709 23.7399 9.11029C23.8263 9.04348 23.925 8.99445 24.0305 8.96601C24.1359 8.93758 24.2459 8.93031 24.3542 8.94462C24.4625 8.95894 24.5668 8.99456 24.6613 9.04942L24.6667 9.05317V9.04171C24.6667 8.82791 24.7489 8.62228 24.8962 8.46737C25.0436 8.31246 25.2448 8.22011 25.4584 8.20942L25.5 8.20837ZM25.5 9.87504C25.3343 9.87504 25.1753 9.94089 25.0581 10.0581C24.9409 10.1753 24.875 10.3343 24.875 10.5C24.875 10.6658 24.9409 10.8248 25.0581 10.942C25.1753 11.0592 25.3343 11.125 25.5 11.125C25.6658 11.125 25.8248 11.0592 25.942 10.942C26.0592 10.8248 26.125 10.6658 26.125 10.5C26.125 10.3343 26.0592 10.1753 25.942 10.0581C25.8248 9.94089 25.6658 9.87504 25.5 9.87504Z" fill="#74C5F1"/>
</g>
<g clip-path="url(#clip1_2296_8)">
<path d="M22.5001 15.125C22.6327 15.125 22.7599 15.1777 22.8537 15.2714C22.9474 15.3652 23.0001 15.4924 23.0001 15.625L22.9999 15.6319L23.0036 15.6296C23.1089 15.5685 23.2331 15.5483 23.3524 15.5727L23.382 15.5798C23.4451 15.5968 23.5043 15.6262 23.556 15.6662C23.6078 15.7062 23.6511 15.7561 23.6835 15.8129C23.7494 15.9276 23.7673 16.0638 23.7332 16.1917C23.6992 16.3196 23.6159 16.4288 23.5016 16.4955L23.4931 16.5L23.502 16.5049C23.6122 16.5693 23.6936 16.6733 23.7297 16.7957C23.7659 16.9181 23.7539 17.0497 23.6964 17.1636L23.6837 17.1869C23.6513 17.2438 23.6079 17.2937 23.5561 17.3337C23.5043 17.3738 23.4451 17.4032 23.3819 17.4202C23.3187 17.4373 23.2527 17.4417 23.1878 17.4331C23.1228 17.4246 23.0603 17.4032 23.0036 17.3704L22.9999 17.3679L23.0001 17.375C23.0001 17.5033 22.9508 17.6267 22.8624 17.7196C22.774 17.8125 22.6532 17.868 22.5251 17.8744L22.5001 17.875C22.3675 17.875 22.2403 17.8223 22.1466 17.7286C22.0528 17.6348 22.0001 17.5076 22.0001 17.375L22.0002 17.368L21.9966 17.3704C21.8913 17.4315 21.7672 17.4518 21.6479 17.4274L21.6184 17.4204C21.5552 17.4033 21.496 17.3739 21.4443 17.3339C21.3925 17.2939 21.3492 17.2441 21.3167 17.1872C21.2508 17.0725 21.2329 16.9364 21.2669 16.8086C21.301 16.6807 21.3841 16.5715 21.4984 16.5048L21.5071 16.5L21.4982 16.4952C21.3881 16.4308 21.3066 16.3268 21.2705 16.2044C21.2344 16.082 21.2463 15.9504 21.3039 15.8365L21.3164 15.8131C21.3488 15.7562 21.3922 15.7062 21.444 15.6661C21.4958 15.6261 21.5551 15.5966 21.6184 15.5796C21.6816 15.5625 21.7477 15.5582 21.8126 15.5668C21.8776 15.5753 21.9402 15.5967 21.9969 15.6296L22.0001 15.6319V15.625C22.0001 15.4967 22.0494 15.3733 22.1378 15.2804C22.2262 15.1875 22.347 15.132 22.4751 15.1256L22.5001 15.125ZM22.5001 16.125C22.4007 16.125 22.3053 16.1645 22.2349 16.2348C22.1646 16.3052 22.1251 16.4005 22.1251 16.5C22.1251 16.5995 22.1646 16.6948 22.2349 16.7652C22.3053 16.8355 22.4007 16.875 22.5001 16.875C22.5996 16.875 22.695 16.8355 22.7653 16.7652C22.8356 16.6948 22.8751 16.5995 22.8751 16.5C22.8751 16.4005 22.8356 16.3052 22.7653 16.2348C22.695 16.1645 22.5996 16.125 22.5001 16.125Z" fill="#74C5F1"/>
</g>
<g clip-path="url(#clip2_2296_8)">
<path d="M6.50002 16.2084C6.72104 16.2084 6.933 16.2962 7.08928 16.4525C7.24556 16.6087 7.33336 16.8207 7.33336 17.0417L7.33294 17.0532L7.33919 17.0494C7.51475 16.9476 7.72162 16.9138 7.92044 16.9546L7.96982 16.9663C8.07505 16.9947 8.17362 17.0437 8.25985 17.1104C8.34609 17.1771 8.41829 17.2601 8.47232 17.3548C8.58222 17.5461 8.61203 17.773 8.55524 17.9862C8.49845 18.1993 8.35968 18.3813 8.16919 18.4925L8.15502 18.5L8.16982 18.5082C8.35344 18.6155 8.48919 18.7889 8.54939 18.9929C8.60959 19.1969 8.5897 19.4162 8.49377 19.6061L8.47273 19.6448C8.41868 19.7396 8.3464 19.8228 8.26006 19.8896C8.17371 19.9563 8.07501 20.0053 7.96964 20.0338C7.86427 20.0622 7.75431 20.0695 7.64611 20.0552C7.53791 20.041 7.4336 20.0054 7.33919 19.9507L7.33294 19.9465L7.33336 19.9584C7.33336 20.1722 7.25118 20.3778 7.10383 20.5327C6.95648 20.6876 6.75522 20.78 6.54169 20.7907L6.50002 20.7917C6.27901 20.7917 6.06705 20.7039 5.91077 20.5476C5.75449 20.3913 5.66669 20.1794 5.66669 19.9584L5.6669 19.9467L5.66086 19.9507C5.48533 20.0526 5.27845 20.0864 5.07961 20.0457L5.03044 20.034C4.92517 20.0056 4.82656 19.9566 4.74029 19.8899C4.65401 19.8232 4.58178 19.7402 4.52773 19.6455C4.41786 19.4543 4.38803 19.2274 4.44473 19.0143C4.50144 18.8013 4.64008 18.6192 4.83044 18.508L4.84502 18.5L4.83023 18.4921C4.64661 18.3848 4.51086 18.2114 4.45066 18.0074C4.39046 17.8034 4.41035 17.5841 4.50627 17.3942L4.52711 17.3552C4.58116 17.2604 4.65346 17.1771 4.73986 17.1103C4.82625 17.0435 4.92502 16.9944 5.03047 16.966C5.13591 16.9376 5.24594 16.9303 5.35421 16.9446C5.46248 16.9589 5.56684 16.9946 5.66127 17.0494L5.66669 17.0532V17.0417C5.66669 16.8279 5.74886 16.6223 5.89622 16.4674C6.04357 16.3125 6.24482 16.2201 6.45836 16.2094L6.50002 16.2084ZM6.50002 17.875C6.33426 17.875 6.17529 17.9409 6.05808 18.0581C5.94087 18.1753 5.87502 18.3343 5.87502 18.5C5.87502 18.6658 5.94087 18.8248 6.05808 18.942C6.17529 19.0592 6.33426 19.125 6.50002 19.125C6.66578 19.125 6.82476 19.0592 6.94197 18.942C7.05918 18.8248 7.12502 18.6658 7.12502 18.5C7.12502 18.3343 7.05918 18.1753 6.94197 18.0581C6.82476 17.9409 6.66578 17.875 6.50002 17.875Z" fill="#74C5F1"/>
</g>
<g clip-path="url(#clip3_2296_8)">
<path d="M6.50002 7.20837C6.72104 7.20837 6.933 7.29617 7.08928 7.45245C7.24556 7.60873 7.33336 7.82069 7.33336 8.04171L7.33294 8.05317L7.33919 8.04942C7.51475 7.94757 7.72162 7.91383 7.92044 7.95462L7.96982 7.96629C8.07505 7.99474 8.17362 8.04372 8.25985 8.1104C8.34609 8.17708 8.41829 8.26015 8.47232 8.35483C8.58222 8.54608 8.61203 8.77302 8.55524 8.98616C8.49845 9.1993 8.35968 9.38133 8.16919 9.49254L8.15502 9.50004L8.16982 9.50817C8.35344 9.61553 8.48919 9.7889 8.54939 9.99292C8.60959 10.1969 8.5897 10.4162 8.49377 10.6061L8.47273 10.6448C8.41868 10.7396 8.3464 10.8228 8.26006 10.8896C8.17371 10.9563 8.07501 11.0053 7.96964 11.0338C7.86427 11.0622 7.75431 11.0695 7.64611 11.0552C7.53791 11.041 7.4336 11.0054 7.33919 10.9507L7.33294 10.9465L7.33336 10.9584C7.33336 11.1722 7.25118 11.3778 7.10383 11.5327C6.95648 11.6876 6.75522 11.78 6.54169 11.7907L6.50002 11.7917C6.27901 11.7917 6.06705 11.7039 5.91077 11.5476C5.75449 11.3913 5.66669 11.1794 5.66669 10.9584L5.6669 10.9467L5.66086 10.9507C5.48533 11.0526 5.27845 11.0864 5.07961 11.0457L5.03044 11.034C4.92517 11.0056 4.82656 10.9566 4.74029 10.8899C4.65401 10.8232 4.58178 10.7402 4.52773 10.6455C4.41786 10.4543 4.38803 10.2274 4.44473 10.0143C4.50144 9.80126 4.64008 9.61924 4.83044 9.50796L4.84502 9.50004L4.83023 9.49212C4.64661 9.38476 4.51086 9.21139 4.45066 9.00737C4.39046 8.80336 4.41035 8.58406 4.50627 8.39421L4.52711 8.35525C4.58116 8.26035 4.65346 8.17709 4.73986 8.11029C4.82625 8.04348 4.92502 7.99445 5.03047 7.96601C5.13591 7.93758 5.24594 7.93031 5.35421 7.94462C5.46248 7.95894 5.56684 7.99456 5.66127 8.04942L5.66669 8.05317V8.04171C5.66669 7.82791 5.74886 7.62228 5.89622 7.46737C6.04357 7.31246 6.24482 7.22011 6.45836 7.20942L6.50002 7.20837ZM6.50002 8.87504C6.33426 8.87504 6.17529 8.94089 6.05808 9.0581C5.94087 9.17531 5.87502 9.33428 5.87502 9.50004C5.87502 9.6658 5.94087 9.82477 6.05808 9.94198C6.17529 10.0592 6.33426 10.125 6.50002 10.125C6.66578 10.125 6.82476 10.0592 6.94197 9.94198C7.05918 9.82477 7.12502 9.6658 7.12502 9.50004C7.12502 9.33428 7.05918 9.17531 6.94197 9.0581C6.82476 8.94089 6.66578 8.87504 6.50002 8.87504Z" fill="#74C5F1"/>
</g>
<g clip-path="url(#clip4_2296_8)">
<path d="M28.5 16.2084C28.721 16.2084 28.933 16.2962 29.0893 16.4525C29.2456 16.6087 29.3334 16.8207 29.3334 17.0417L29.3329 17.0532L29.3392 17.0494C29.5147 16.9476 29.7216 16.9138 29.9204 16.9546L29.9698 16.9663C30.075 16.9947 30.1736 17.0437 30.2599 17.1104C30.3461 17.1771 30.4183 17.2601 30.4723 17.3548C30.5822 17.5461 30.612 17.773 30.5552 17.9862C30.4985 18.1993 30.3597 18.3813 30.1692 18.4925L30.155 18.5L30.1698 18.5082C30.3534 18.6155 30.4892 18.7889 30.5494 18.9929C30.6096 19.1969 30.5897 19.4162 30.4938 19.6061L30.4727 19.6448C30.4187 19.7396 30.3464 19.8228 30.2601 19.8896C30.1737 19.9563 30.075 20.0053 29.9696 20.0338C29.8643 20.0622 29.7543 20.0695 29.6461 20.0552C29.5379 20.041 29.4336 20.0054 29.3392 19.9507L29.3329 19.9465L29.3334 19.9584C29.3334 20.1722 29.2512 20.3778 29.1038 20.5327C28.9565 20.6876 28.7552 20.78 28.5417 20.7907L28.5 20.7917C28.279 20.7917 28.067 20.7039 27.9108 20.5476C27.7545 20.3913 27.6667 20.1794 27.6667 19.9584L27.6669 19.9467L27.6609 19.9507C27.4853 20.0526 27.2785 20.0864 27.0796 20.0457L27.0304 20.034C26.9252 20.0056 26.8266 19.9566 26.7403 19.8899C26.654 19.8232 26.5818 19.7402 26.5277 19.6455C26.4179 19.4543 26.388 19.2274 26.4447 19.0143C26.5014 18.8013 26.6401 18.6192 26.8304 18.508L26.845 18.5L26.8302 18.4921C26.6466 18.3848 26.5109 18.2114 26.4507 18.0074C26.3905 17.8034 26.4104 17.5841 26.5063 17.3942L26.5271 17.3552C26.5812 17.2604 26.6535 17.1771 26.7399 17.1103C26.8263 17.0435 26.925 16.9944 27.0305 16.966C27.1359 16.9376 27.2459 16.9303 27.3542 16.9446C27.4625 16.9589 27.5668 16.9946 27.6613 17.0494L27.6667 17.0532V17.0417C27.6667 16.8279 27.7489 16.6223 27.8962 16.4674C28.0436 16.3125 28.2448 16.2201 28.4584 16.2094L28.5 16.2084ZM28.5 17.875C28.3343 17.875 28.1753 17.9409 28.0581 18.0581C27.9409 18.1753 27.875 18.3343 27.875 18.5C27.875 18.6658 27.9409 18.8248 28.0581 18.942C28.1753 19.0592 28.3343 19.125 28.5 19.125C28.6658 19.125 28.8248 19.0592 28.942 18.942C29.0592 18.8248 29.125 18.6658 29.125 18.5C29.125 18.3343 29.0592 18.1753 28.942 18.0581C28.8248 17.9409 28.6658 17.875 28.5 17.875Z" fill="#74C5F1"/>
</g>
<g clip-path="url(#clip5_2296_8)">
<path d="M12.5001 4.125C12.6327 4.125 12.7599 4.17768 12.8537 4.27145C12.9474 4.36521 13.0001 4.49239 13.0001 4.625L12.9999 4.63187L13.0036 4.62963C13.1089 4.56852 13.2331 4.54828 13.3524 4.57275L13.382 4.57975C13.4451 4.59682 13.5043 4.62621 13.556 4.66622C13.6078 4.70622 13.6511 4.75607 13.6835 4.81287C13.7494 4.92762 13.7673 5.06379 13.7332 5.19167C13.6992 5.31956 13.6159 5.42877 13.5016 5.4955L13.4931 5.5L13.502 5.50487C13.6122 5.5693 13.6936 5.67332 13.7297 5.79573C13.7659 5.91814 13.7539 6.04971 13.6964 6.16363L13.6837 6.18688C13.6513 6.24376 13.6079 6.29367 13.5561 6.33372C13.5043 6.37378 13.4451 6.40318 13.3819 6.42024C13.3187 6.43729 13.2527 6.44167 13.1878 6.43311C13.1228 6.42455 13.0603 6.40323 13.0036 6.37037L12.9999 6.36788L13.0001 6.375C13.0001 6.50328 12.9508 6.62665 12.8624 6.7196C12.774 6.81255 12.6532 6.86796 12.5251 6.87438L12.5001 6.875C12.3675 6.875 12.2403 6.82232 12.1466 6.72855C12.0528 6.63479 12.0001 6.50761 12.0001 6.375L12.0002 6.368L11.9966 6.37037C11.8913 6.43152 11.7672 6.45181 11.6479 6.42738L11.6184 6.42038C11.5552 6.40332 11.496 6.37394 11.4443 6.33393C11.3925 6.29392 11.3492 6.24407 11.3167 6.18725C11.2508 6.07254 11.2329 5.93643 11.2669 5.80858C11.301 5.68073 11.3841 5.57152 11.4984 5.50475L11.5071 5.5L11.4982 5.49525C11.3881 5.43083 11.3066 5.32681 11.2705 5.2044C11.2344 5.08199 11.2463 4.95041 11.3039 4.8365L11.3164 4.81313C11.3488 4.75619 11.3922 4.70623 11.444 4.66615C11.4958 4.62606 11.5551 4.59664 11.6184 4.57958C11.6816 4.56252 11.7477 4.55816 11.8126 4.56675C11.8776 4.57534 11.9402 4.59671 11.9969 4.62963L12.0001 4.63187V4.625C12.0001 4.49672 12.0494 4.37335 12.1378 4.2804C12.2262 4.18745 12.347 4.13204 12.4751 4.12562L12.5001 4.125ZM12.5001 5.125C12.4007 5.125 12.3053 5.16451 12.2349 5.23483C12.1646 5.30516 12.1251 5.40054 12.1251 5.5C12.1251 5.59946 12.1646 5.69484 12.2349 5.76517C12.3053 5.83549 12.4007 5.875 12.5001 5.875C12.5996 5.875 12.695 5.83549 12.7653 5.76517C12.8356 5.69484 12.8751 5.59946 12.8751 5.5C12.8751 5.40054 12.8356 5.30516 12.7653 5.23483C12.695 5.16451 12.5996 5.125 12.5001 5.125Z" fill="#74C5F1"/>
</g>
<defs>
<clipPath id="clip0_2296_8">
<rect width="5" height="5" fill="white" transform="translate(23 8)"/>
</clipPath>
<clipPath id="clip1_2296_8">
<rect width="3" height="3" fill="white" transform="translate(21 15)"/>
</clipPath>
<clipPath id="clip2_2296_8">
<rect width="5" height="5" fill="white" transform="translate(4 16)"/>
</clipPath>
<clipPath id="clip3_2296_8">
<rect width="5" height="5" fill="white" transform="translate(4 7)"/>
</clipPath>
<clipPath id="clip4_2296_8">
<rect width="5" height="5" fill="white" transform="translate(26 16)"/>
</clipPath>
<clipPath id="clip5_2296_8">
<rect width="3" height="3" fill="white" transform="translate(11 4)"/>
</clipPath>
</defs>
</svg>
