<svg width="150" height="150" viewBox="0 0 33 33" fill="none" xmlns="http://www.w3.org/2000/svg">
<path fill-rule="evenodd" clip-rule="evenodd" d="M16.5 3.3C14.1913 3.29958 11.9228 3.9047 9.92099 5.05499C7.9192 6.20527 6.25412 7.86047 5.09194 9.85537C3.92976 11.8503 3.31114 14.1151 3.29781 16.4238C3.28449 18.7325 3.87693 21.0044 5.01601 23.0125C5.78592 22.0119 6.77562 21.2018 7.9086 20.6448C9.04158 20.0877 10.2875 19.7987 11.55 19.8H21.45C22.7125 19.7987 23.9584 20.0877 25.0914 20.6448C26.2244 21.2018 27.2141 22.0119 27.984 23.0125C29.1231 21.0044 29.7155 18.7325 29.7022 16.4238C29.6889 14.1151 29.0702 11.8503 27.9081 9.85537C26.7459 7.86047 25.0808 6.20527 23.079 5.05499C21.0772 3.9047 18.8087 3.29958 16.5 3.3ZM29.6059 26.5254C29.8127 26.2559 30.0107 25.9798 30.1999 25.6971C32.0292 22.979 33.0043 19.7763 33 16.5C33 7.38705 25.6129 0 16.5 0C7.38706 0 1.69215e-05 7.38705 1.69215e-05 16.5C-0.00518276 20.1246 1.18808 23.6493 3.39406 26.5254L3.38581 26.5551L3.97156 27.2365C5.51907 29.0458 7.44049 30.498 9.60339 31.493C11.7663 32.4879 14.1192 33.0021 16.5 33C16.8564 33 17.2106 32.989 17.5626 32.967C20.5398 32.7793 23.4097 31.7839 25.8637 30.0877C27.0374 29.2781 28.1012 28.3197 29.0284 27.2365L29.6142 26.5551L29.6059 26.5254ZM16.5 6.6C15.1872 6.6 13.9281 7.12152 12.9998 8.04982C12.0715 8.97813 11.55 10.2372 11.55 11.55C11.55 12.8628 12.0715 14.1219 12.9998 15.0502C13.9281 15.9785 15.1872 16.5 16.5 16.5C17.8128 16.5 19.0719 15.9785 20.0002 15.0502C20.9285 14.1219 21.45 12.8628 21.45 11.55C21.45 10.2372 20.9285 8.97813 20.0002 8.04982C19.0719 7.12152 17.8128 6.6 16.5 6.6Z" fill="#74C5F1"/>
</svg>
